<svg viewBox="0 0 72 72" xmlns="http://www.w3.org/2000/svg"><path d="M31.6525044,0.335899411 C32.3243032,-0.11196647 33.1995063,-0.11196647 33.8713052,0.335899411 L33.8713052,0.335899411 L64.6332099,20.8438359 C64.7315482,20.9093948 64.8217428,20.9814913 64.9037936,21.0590426 C65.6811364,21.2931987 66.2590724,21.9874815 66.3208838,22.8252927 L66.3263695,22.974555 L66.3263695,44.0395833 L66.3231753,44.1157041 C69.4906768,44.9523361 71.8259089,47.8373533 71.8259089,51.2677931 C71.8259089,55.352947 68.5142373,58.6646185 64.4290835,58.6646185 C60.3439296,58.6646185 57.0322581,55.352947 57.0322581,51.2677931 C57.0322581,47.9117938 59.2672406,45.0778027 62.3299782,44.1730472 L62.3263695,44.0395833 L62.326,25.71 L55.269,30.414 L55.2698413,46.0586383 C55.2698413,46.6713177 54.9892928,47.2468764 54.5143103,47.6243182 L54.3800137,47.7222239 L33.8720772,61.4079309 C33.2479353,61.8244439 32.4479933,61.8541948 31.7987372,61.4971837 L31.6517323,61.4079309 L11.1437958,47.7222239 C10.6341734,47.382134 10.3111564,46.829291 10.2608593,46.2246913 L10.2539683,46.0586383 L10.253,30.414 L0.890599608,24.1720371 C-0.251194761,23.4108409 -0.295109929,21.7682939 0.758854103,20.9393015 L0.890599608,20.8438359 Z M14.253,33.08 L14.253,44.988 L32.762,57.339 L51.269,44.989 L51.269,33.081 L33.8713052,44.6799736 C33.247492,45.0958491 32.4482944,45.1255545 31.7994263,44.7690898 L31.6525044,44.6799736 L14.253,33.08 Z M64.4290835,47.8709677 C62.5530686,47.8709677 61.0322581,49.3917783 61.0322581,51.2677931 C61.0322581,53.143808 62.5530686,54.6646185 64.4290835,54.6646185 C66.3050983,54.6646185 67.8259089,53.143808 67.8259089,51.2677931 C67.8259089,49.3917783 66.3050983,47.8709677 64.4290835,47.8709677 Z M32.762,4.404 L5.606,22.508 L32.762,40.611 L57.082,24.398 L33.031746,24.3983135 C31.9271765,24.3983135 31.031746,23.502883 31.031746,22.3983135 C31.031746,21.3439517 31.8476238,20.4801484 32.8824837,20.4037992 L33.031746,20.3983135 L56.752,20.398 L32.762,4.404 Z" transform="translate(0 5)" fill="" fill-rule="nonzero"/></svg>