<svg viewBox="0 0 72 72" xmlns="http://www.w3.org/2000/svg"><path d="M21.8917644,44.0973164 C22.5942326,43.5166518 23.6004276,43.484338 24.3387059,44.0187332 C28.2994617,46.8856864 30.6949153,51.4730638 30.6949153,56.4576271 L30.6949153,56.4576271 L30.6949153,65 C30.6949153,66.1045695 29.7994848,67 28.6949153,67 L28.6949153,67 L2,67 C0.8954305,67 -3.12638804e-13,66.1045695 -3.12638804e-13,65 L-3.12638804e-13,65 L-3.12638804e-13,56.4576271 C-3.12638804e-13,51.473086 2.39542484,46.8857483 6.35628524,44.0184533 C7.09464299,43.4839509 8.10100097,43.5163116 8.80349363,44.0971464 C10.6325759,45.6094677 12.9227339,46.4491525 15.3474576,46.4491525 C17.7721023,46.4491525 20.062357,45.609516 21.8917644,44.0973164 Z M23.094,48.166 L22.8421434,48.3265616 C20.6175966,49.7008559 18.0383157,50.4491525 15.3474576,50.4491525 C12.6564332,50.4491525 10.0770723,49.7007641 7.8526193,48.326254 L7.8526193,48.326254 L7.6,48.166 L7.41472626,48.3426705 C5.33942571,50.3696466 4.0945326,53.1323906 4.00516507,56.1127975 L4.00516507,56.1127975 L4,56.4576271 L4,63 L26.694,63 L26.6949153,56.4576271 C26.6949153,53.3460047 25.4353138,50.447633 23.2803227,48.3429123 L23.2803227,48.3429123 L23.094,48.166 Z M42.66137,37.0777754 C43.3997277,36.5432729 44.4060857,36.5756337 45.1085784,37.1564684 C46.9376606,38.6687897 49.2278186,39.5084746 51.6525424,39.5084746 C54.077187,39.5084746 56.3674417,38.668838 58.1968491,37.1566385 C58.8993174,36.5759738 59.9055124,36.54366 60.6437906,37.0780553 C64.6045464,39.9450085 67,44.5323858 67,49.5169492 L67,49.5169492 L67,58.059322 C67,59.1638915 66.1045695,60.059322 65,60.059322 L65,60.059322 L38.3050847,60.059322 C37.2005152,60.059322 36.3050847,59.1638915 36.3050847,58.059322 L36.3050847,58.059322 L36.3050847,49.5169492 C36.3050847,44.532408 38.7005096,39.9450703 42.66137,37.0777754 Z M59.399,41.225 L59.1472282,41.3858836 C56.9226813,42.7601779 54.3434005,43.5084746 51.6525424,43.5084746 C48.9615179,43.5084746 46.3821571,42.7600861 44.157704,41.385576 L44.157704,41.385576 L43.905,41.225 L43.719811,41.4019926 C41.6445105,43.4289686 40.3996173,46.1917126 40.3102498,49.1721196 L40.3102498,49.1721196 L40.305,49.5169492 L40.305,56.059 L62.999,56.059 L63,49.5169492 C63,46.4053268 61.7403986,43.506955 59.5854075,41.4022344 L59.5854075,41.4022344 L59.399,41.225 Z M15.8813559,28.2966102 C19.9345644,28.2966102 23.220339,31.5823848 23.220339,35.6355932 C23.220339,39.6888016 19.9345644,42.9745763 15.8813559,42.9745763 C11.8281475,42.9745763 8.54237288,39.6888016 8.54237288,35.6355932 C8.54237288,31.5823848 11.8281475,28.2966102 15.8813559,28.2966102 Z M15.8813559,32.2966102 C14.0372865,32.2966102 12.5423729,33.7915238 12.5423729,35.6355932 C12.5423729,37.4796626 14.0372865,38.9745763 15.8813559,38.9745763 C17.7254254,38.9745763 19.220339,37.4796626 19.220339,35.6355932 C19.220339,33.7915238 17.7254254,32.2966102 15.8813559,32.2966102 Z M52.1864407,21.3559322 C56.2396491,21.3559322 59.5254237,24.6417068 59.5254237,28.6949153 C59.5254237,32.7481237 56.2396491,36.0338983 52.1864407,36.0338983 C48.1332323,36.0338983 44.8474576,32.7481237 44.8474576,28.6949153 C44.8474576,24.6417068 48.1332323,21.3559322 52.1864407,21.3559322 Z M52.1864407,25.3559322 C50.3423713,25.3559322 48.8474576,26.8508458 48.8474576,28.6949153 C48.8474576,30.5389847 50.3423713,32.0338983 52.1864407,32.0338983 C54.0305101,32.0338983 55.5254237,30.5389847 55.5254237,28.6949153 C55.5254237,26.8508458 54.0305101,25.3559322 52.1864407,25.3559322 Z M21.8898305,6.94067797 C24.0989695,6.94067797 25.8898305,8.73153897 25.8898305,10.940678 L25.8898305,10.940678 L25.8898305,18.1525424 C25.8898305,20.3616814 24.0989695,22.1525424 21.8898305,22.1525424 L21.8898305,22.1525424 L12.62,22.152 L12.6200414,25.6622261 C12.6200414,27.4249306 10.5231061,28.3026892 9.26743728,27.1361647 L9.26743728,27.1361647 L9.15890094,27.0279013 L4.602,22.152 L4,22.1525424 C1.85780461,22.1525424 0.108921124,20.4685739 0.00489530723,18.3521827 L0.00489530723,18.3521827 L-4.54747351e-13,18.1525424 L-4.54747351e-13,10.940678 C-4.54747351e-13,8.73153897 1.790861,6.94067797 4,6.94067797 L4,6.94067797 Z M63,1.70530257e-13 C65.209139,1.70530257e-13 67,1.790861 67,4 L67,11.2118644 L66.9951047,11.4115047 C66.8910789,13.5278959 65.1421954,15.2118644 63,15.2118644 L62.3981695,15.211 L57.8410991,20.0872233 L57.7325627,20.1954867 C56.4768939,21.3620112 54.3799586,20.4842526 54.3799586,18.7215482 L54.3801695,15.211 L45.1101695,15.2118644 C42.9010305,15.2118644 41.1101695,13.4210034 41.1101695,11.2118644 L41.1101695,4 C41.1101695,1.790861 42.9010305,1.70530257e-13 45.1101695,1.70530257e-13 L63,1.70530257e-13 Z M21.8898305,10.940678 L4,10.940678 L4,18.1525424 L5.47033898,18.1525424 C6.02420797,18.1525424 6.55327684,18.382227 6.93147941,18.7868672 L6.93147941,18.7868672 L8.62,20.593 L8.62004137,20.1525424 C8.62004137,19.0981806 9.43591916,18.2343773 10.470779,18.1580281 L10.470779,18.1580281 L10.6200414,18.1525424 L21.8898305,18.1525424 L21.8898305,10.940678 Z M63,4 L45.1101695,4 L45.1101695,11.2118644 L56.3799586,11.2118644 L56.529221,11.2173501 C57.5640808,11.2936993 58.3799586,12.1575026 58.3799586,13.2118644 L58.3801695,13.653 L60.0685206,11.8461892 C60.4467232,11.4415491 60.975792,11.2118644 61.529661,11.2118644 L63,11.2118644 L63,4 Z" transform="translate(2 2)" fill="" fill-rule="nonzero"/></svg>