<svg viewBox="0 0 72 72" xmlns="http://www.w3.org/2000/svg"><path d="M23.2070684,19.0823399 C17.7661551,25.1284426 16.7308104,34.3543451 20.6488561,41.6254469 C21.156427,42.6405196 20.765652,43.8752065 19.7664772,44.4133984 C18.7673023,44.9515903 17.5213074,44.5985272 16.9441735,43.6003864 C12.1964015,34.7914909 13.4534031,23.6407275 20.0861046,16.2758249 C28.3496392,7.08931804 42.0456639,6.83951633 50.5999922,15.7210763 C58.365096,23.7902808 59.2591983,36.724409 52.8445405,45.8839338 C53.6873907,46.497422 54.630385,46.9210364 55.622016,47.1263653 C56.2903763,47.2671016 56.8485338,47.7241013 57.1183938,48.3515468 C57.3882539,48.9789923 57.3360973,49.6984839 56.963295,50.3040486 L56.8513404,50.4673668 L56.7398018,50.5985488 L56.3693292,50.9296616 C52.2802581,53.7783295 47.5305268,55.5337796 42.5640317,56.029837 L42.5009796,56.03529 C41.5913757,56.1235125 40.6694572,56.1670857 39.7281972,56.1670857 C38.5684419,56.1670857 37.6282744,55.2269183 37.6282744,54.0671629 C37.6282744,52.9074076 38.5684419,51.9672402 39.7281972,51.9672402 C40.5198386,51.9672402 41.3107847,51.9296463 42.077371,51.8562237 L42.138582,51.8501039 C45.0870151,51.5613147 47.9571691,50.7476892 50.6143754,49.450425 C50.0293686,49.0459172 49.5100748,48.6055598 49.1181256,48.1722724 C47.8366836,47.6058379 47.3343751,46.0361237 48.3306154,44.864971 C54.7085276,37.3634284 54.3761766,25.7032637 47.5754966,18.635108 C40.71391,11.5099362 29.8412329,11.7091139 23.2070684,19.0823399 Z M25.6859173,34.4706996 C26.5669634,33.7236003 27.886836,33.8321856 28.634267,34.7136231 C30.3593293,36.7515004 32.8950693,37.9252267 35.5658388,37.9216947 C38.2851212,37.9216947 40.825788,36.7237173 42.5509509,34.6537918 C43.0227285,34.0592036 43.779662,33.7669565 44.5286026,33.8902333 C45.2775432,34.0135101 45.9008717,34.5329505 46.1571824,35.2473832 C46.4134931,35.9618158 46.2625332,36.7590409 45.7728274,37.3185011 C43.2526511,40.3541007 39.5105306,42.1083629 35.566376,42.1037558 C31.6678813,42.1072371 27.9657791,40.3933009 25.447438,37.4199766 C24.6965929,36.5394416 24.8039665,35.2185662 25.6859173,34.4706996 Z M35.740739,0.000571776809 C50.0406234,0.0841701659 60.7126397,8.4241849 64.1115191,21.7242386 L64.157405,21.8623414 C67.8003511,23.278075 70.2000015,26.7854585 70.2000015,30.6938611 C70.2000015,35.7401707 66.2427486,39.8999922 61.2027722,40.1527318 L60.5727218,40.1843269 L60.5727218,39.5534847 L60.5936107,23.9174764 C57.123361,11.1122416 49.0979276,4.03166902 35.5658388,4.03166902 C21.0849471,4.03166902 9.62557352,16.0614484 9.62557352,30.6938074 C9.62557352,41.5741441 13.1097423,46.6326214 21.3910745,48.6190199 L21.521566,48.5755227 C22.2520068,47.7744046 23.2857753,47.3151593 24.3831428,47.3151593 L29.9744908,47.3151593 C32.1174978,47.3151593 33.8547483,49.0524098 33.8547483,51.1954169 C33.8547483,53.3384239 32.1174978,55.0756744 29.9744908,55.0756744 L24.3829906,55.0756744 C22.7572962,55.0756744 21.304207,54.0614788 20.9117501,52.7811796 L20.8514187,52.6335421 C12.8440759,50.8250301 8.48209232,46.9837206 6.60443799,39.7873081 L6.51563337,39.6932279 C2.55619582,38.3922382 -0.0952302052,34.6498399 0.00262014655,30.4707536 C0.101720039,26.2383007 2.99670686,22.5852506 6.83355605,21.6660786 L7.03713598,21.4740221 C11.2721405,8.34134452 21.9744142,-0.0799073752 35.740739,0.000571776809 Z" transform="translate(0 8)" fill="" fill-rule="evenodd"/></svg>