<svg viewBox="0 0 72 72" xmlns="http://www.w3.org/2000/svg"><path d="M25.266,23.227 L5.27859485,26.1322421 L5.12771665,26.1597166 C3.59901428,26.4957699 3.02022887,28.4227152 4.1701681,29.5436289 L18.633,43.641 L15.2196553,63.5504537 L15.1996144,63.6978682 C15.0431384,65.2579239 16.6987617,66.4068129 18.1215542,65.6588067 L36,56.259 L53.8784458,65.6588067 L54.0124523,65.7234203 C55.4477998,66.3543215 57.0520739,65.1347564 56.7803447,63.5504537 L53.366,43.641 L67.8298319,29.5436289 L67.9357458,29.4327176 C68.9749649,28.2622961 68.3105821,26.3631631 66.7214052,26.1322421 L46.733,23.227 L37.7934722,5.11486858 C37.0598448,3.62837714 34.9401552,3.62837714 34.2065278,5.11486858 L25.266,23.227 Z M36,10.519 L43.6110919,25.9408595 L43.6894793,26.0845802 C43.9968842,26.5971523 44.5198321,26.9481733 45.1169674,27.0349421 L62.136,29.507 L49.8208809,41.5120992 L49.7084175,41.6310622 C49.3159257,42.0818151 49.1436847,42.6876396 49.2456876,43.282362 L52.152,60.232 L36.9306823,52.2297372 L36.7691366,52.153791 C36.2224137,51.9259525 35.5989978,51.9512679 35.0693177,52.2297372 L19.847,60.232 L22.7543124,43.282362 L22.7753725,43.1200146 C22.8279591,42.5246469 22.6112103,41.933284 22.1791191,41.5120992 L9.863,29.507 L26.8830326,27.0349421 C27.5344529,26.9402852 28.0975841,26.5311465 28.3889081,25.9408595 L36,10.519 Z" fill="" fill-rule="nonzero"/></svg>