<svg viewBox="0 0 72 72" xmlns="http://www.w3.org/2000/svg"><path d="M5.66666667,1.95399252e-13 C8.79628025,1.95399252e-13 11.3333333,2.53705308 11.3333333,5.66666667 L11.3333333,5.66666667 L11.3327227,16.411799 C12.6825805,15.6293212 14.2419115,15.1904762 15.8809524,15.1904762 C19.1726577,15.1904762 22.0548713,16.9437188 23.6447147,19.5673253 C25.1091245,17.6093659 27.4186479,16.3203803 30.0323974,16.2418937 L30.2857143,16.2380952 L53.8571429,16.2380952 C55.6575798,16.2380952 57.3238933,16.8123461 58.682917,17.7876816 L58.6823775,16.6623459 C58.6823775,13.6573328 61.0604209,11.2077414 64.0372818,11.0927978 L64.0372818,11.0927978 L64.2561438,11.0885796 C67.3344499,11.0885796 69.8299101,13.5840398 69.8299101,16.6623459 L69.8299101,16.6623459 L69.8299101,51.6666667 L57.6347584,51.6666667 L57.634,38.213 L11.333,38.213 L11.3333333,51.6666667 L3.55271368e-13,51.6666667 L3.55271368e-13,5.66666667 C3.55271368e-13,2.53705308 2.53705308,1.95399252e-13 5.66666667,1.95399252e-13 Z M5.66666667,4 C4.74619208,4 4,4.74619208 4,5.66666667 L4,5.66666667 L4,47.666 L7.333,47.666 L7.33333333,34.2138559 L61.6347584,34.2138559 L61.634,47.666 L65.829,47.666 L65.8299101,16.6623459 C65.8299101,15.8414658 65.201425,15.1673763 64.3993886,15.0950111 L64.3993886,15.0950111 L64.2561438,15.0885796 C63.3869767,15.0885796 62.6823775,15.7931788 62.6823775,16.6623459 L62.6823775,16.6623459 L62.6823775,26.938859 L7.33333333,26.938859 L7.33333333,5.66666667 C7.33333333,4.74619208 6.58714125,4 5.66666667,4 Z M15.8809524,19.1904762 C13.9500799,19.1904762 12.2179494,20.2787117 11.3605769,21.959408 L11.333,22.015 L11.333,22.938 L20.7779605,22.9384524 C20.1958787,20.7793751 18.2239691,19.1904762 15.8809524,19.1904762 Z M53.8571429,20.2380952 L30.2857143,20.2380952 C28.4787824,20.2380952 26.9330301,21.3563381 26.3027446,22.9385367 L57.8385006,22.9382539 C57.2315377,21.4155066 55.7803019,20.3248821 54.0647896,20.2430376 L53.8571429,20.2380952 Z" transform="translate(1 10)" fill="" fill-rule="nonzero"/></svg>