<svg viewBox="0 0 72 72" xmlns="http://www.w3.org/2000/svg"><path d="M28,1.13686838e-13 C43.463973,1.13686838e-13 56,12.536027 56,28 C56,41.1736985 46.986556,54.3934163 29.2,67.7333333 C28.4888681,68.2666823 27.511057,68.2666651 26.7999438,67.7332912 C9.01341867,54.3924219 0,41.1727411 0,28 C0,12.536027 12.536027,1.13686838e-13 28,1.13686838e-13 Z M28,4 C14.745166,4 4,14.745166 4,28 C4,39.2808087 11.774498,51.0594327 27.5405672,63.2688033 L27.5405672,63.2688033 L28,63.622 L29.0062963,62.8430917 C44.2262177,50.9266624 51.8222994,39.4212175 51.9969182,28.3892217 L51.9969182,28.3892217 L52,28 C52,14.745166 41.254834,4 28,4 Z M28,47.3333333 C17.3224948,47.3333333 8.66666667,38.6775052 8.66666667,28 C8.66666667,17.3224948 17.3224948,8.66666667 28,8.66666667 C38.6775052,8.66666667 47.3333333,17.3224948 47.3333333,28 C47.3333333,38.6775052 38.6775052,47.3333333 28,47.3333333 L28.001,47.333 Z M28,37.5833333 C27.0342504,37.5833333 26.075534,37.6316135 25.1264553,37.7271169 C25.2927928,38.3946956 25.4773764,39.0221575 25.6781953,39.606358 C26.1508891,40.9814673 26.6912295,42.0434216 27.2328115,42.7098066 C27.6129955,43.1776009 27.8746049,43.3333333 28,43.3333333 C28.1253951,43.3333333 28.3870045,43.1776009 28.7671885,42.7098066 C29.3087705,42.0434216 29.8491109,40.9814673 30.3218047,39.606358 C30.5227243,39.0218646 30.7073924,38.3940663 30.8745306,37.7291756 C29.9243978,37.6316094 28.9657136,37.5833333 28,37.5833333 Z M21.1531402,38.4172004 L20.7238613,38.5256942 C19.7388236,38.7866091 18.7698058,39.1006414 17.8200868,39.4664603 C19.1608816,40.6578462 20.7115936,41.6172122 22.4098673,42.2824229 C21.9178122,41.143604 21.4972679,39.8442124 21.1531402,38.4172004 Z M34.8466888,38.4155618 L34.7721537,38.7202159 C34.4424744,40.0284385 34.0471893,41.2245474 33.5902386,42.2819042 C35.2884064,41.6172122 36.8391184,40.6578462 38.1795881,39.4670054 C37.0923565,39.0475603 35.9797049,38.6966196 34.8466888,38.4155618 Z M20.0773655,30.0003893 L12.795989,30.0005322 C13.0937442,32.2857162 13.8946473,34.4128066 15.0838946,36.2669996 C16.8124686,35.51277 18.6024534,34.9127076 20.4377936,34.4728595 C20.2547074,33.0519445 20.1333487,31.5530424 20.0773655,30.0003893 Z M43.204011,30.0005322 L35.922615,30.0009304 C35.8666321,31.5531395 35.7453106,33.0516247 35.5619679,34.4739572 C37.3870445,34.9101747 39.1673487,35.5060018 40.8865499,36.2538985 L40.9161054,36.2669996 C42.1053527,34.4128066 42.9062558,32.2857162 43.204011,30.0005322 Z M31.9173143,30.0009856 L24.0826857,30.0009856 C24.1365918,31.3079704 24.2428297,32.5761031 24.3966544,33.7823204 C25.5864778,33.6500745 26.7886506,33.5833333 28,33.5833333 C29.2113798,33.5833333 30.4135888,33.6500773 31.6025144,33.7819551 C31.7571116,32.5768046 31.8633933,31.3083319 31.9173143,30.0009856 Z M15.0842426,19.7335376 L14.9639524,19.9230544 C13.8406019,21.7322802 13.0833922,23.7925972 12.7958584,26.00047 L20.077349,26.0000675 C20.1333028,24.4478662 20.2545933,22.9493819 20.4379033,21.5270421 C18.6017027,21.0872491 16.8111812,20.4869011 15.0842426,19.7335376 Z M31.603218,22.2166787 L31.5355641,22.2253619 C30.3687911,22.3523408 29.1889534,22.4166667 28,22.4166667 C26.7882255,22.4166667 25.5859215,22.3498475 24.3972695,22.2179811 C24.2428492,23.4235031 24.1365525,24.692315 24.0826445,26.0000146 L31.9173555,26.0000146 C31.8634475,24.692315 31.7571508,23.4235031 31.603218,22.2166787 Z M40.915467,19.7320051 L40.5161421,19.9046573 C38.9132582,20.5782395 37.2573249,21.1209932 35.5616552,21.5272789 C35.7454458,22.9497672 35.8667295,24.4483282 35.9226705,26.0006081 L43.2041416,26.00047 C42.9064367,23.7144968 42.1052399,21.5867033 40.915467,19.7320051 Z M28,12.6666667 C27.8746049,12.6666667 27.6129955,12.8223991 27.2328115,13.2901934 C26.6912295,13.9565784 26.1508891,15.0185327 25.6781953,16.393642 C25.4772757,16.9781354 25.2926076,17.6059337 25.1254694,18.2708244 C26.0755721,18.3683518 27.0341929,18.4166667 28,18.4166667 C28.9659757,18.4166667 29.9247635,18.3683351 30.8736988,18.272827 C30.7072072,17.6053044 30.5226236,16.9778425 30.3218047,16.393642 C29.8491109,15.0185327 29.3087705,13.9565784 28.7671885,13.2901934 C28.3870045,12.8223991 28.1253951,12.6666667 28,12.6666667 Z M22.4097614,13.7180958 L22.3081008,13.7578613 C20.6496202,14.4212732 19.1340596,15.3659818 17.8204119,16.5329946 C18.906604,16.9521998 20.0192842,17.3031679 21.1528664,17.5843358 C21.4971039,16.1563171 21.9176762,14.8567517 22.4097614,13.7180958 Z M33.5901327,13.7175771 L33.6265487,13.8027116 C34.1029579,14.9207942 34.5112493,16.1911063 34.8468598,17.5827996 C35.9803225,17.3032808 37.0929673,16.9523424 38.1796589,16.5338 C36.8391184,15.3421538 35.2884064,14.3827878 33.5901327,13.7175771 Z" transform="translate(8 2)" fill="" fill-rule="nonzero"/></svg>