<svg viewBox="0 0 256 205" xmlns="http://www.w3.org/2000/svg" xmlns:xlink="http://www.w3.org/1999/xlink"><defs><path d="M116.307637,145.09893 C183.114551,145.09893 219.183946,116.680329 219.183946,65.1422137 C219.183946,28.6126477 197.522661,6.0835766e-14 173.379204,6.0835766e-14 C143.799463,6.0835766e-14 126.383672,69.9884132 94.3406358,69.9884132 C56.9294235,69.9884132 81.5647802,10.2205102 26.1389912,19.7969978 C10.0007266,22.5853729 0,37.7822836 0,57.9278836 C0,109.494544 44.1046305,145.09893 116.307637,145.09893 Z" id="a"/><path d="M12.168435,25.1614224 C17.3795362,25.1614224 21.6039684,20.5529509 21.6039684,14.8681133 C21.6039684,9.18327557 17.3795362,0 12.168435,0 C6.95733376,0 2.73290156,9.18327557 2.73290156,14.8681133 C2.73290156,20.5529509 6.95733376,25.1614224 12.168435,25.1614224 Z" id="f"/><path d="M30.4104662,39.6292403 C28.0685494,30.8227425 24.7498614,26.4194935 20.4544022,26.4194935 C14.0112135,26.4194935 16.3273575,34.5052692 13.5574327,35.1810673 C10.7875078,35.8568655 10.4002641,29.7968927 6.61130157,29.7968927 C2.82233906,29.7968927 0.21675932,34.7573494 0.21675932,39.6292403 C0.21675932,39.6292403 10.2813283,39.6292403 30.4104662,39.6292403 Z" id="h"/><path d="M12.168435,25.1614224 C17.3795362,25.1614224 21.6039684,20.5529509 21.6039684,14.8681133 C21.6039684,9.18327557 17.3795362,0 12.168435,0 C6.95733376,0 2.73290156,9.18327557 2.73290156,14.8681133 C2.73290156,20.5529509 6.95733376,25.1614224 12.168435,25.1614224 Z" id="j"/><path d="M30.4104662,39.6292403 C28.0685494,30.8227425 24.7498614,26.4194935 20.4544022,26.4194935 C14.0112135,26.4194935 16.3273575,34.5052692 13.5574327,35.1810673 C10.7875078,35.8568655 10.4002641,29.7968927 6.61130157,29.7968927 C2.82233906,29.7968927 0.21675932,34.7573494 0.21675932,39.6292403 C0.21675932,39.6292403 10.2813283,39.6292403 30.4104662,39.6292403 Z" id="l"/><path id="n" d="M0 0.138615271L40.842711 0.138615271 40.842711 40.0520468 0 40.0520468z"/><path d="M29.5122266,36.2959397 L-9.54376108e-14,36.2959397 L-9.54376108e-14,14.1150877 C-9.54376108e-14,6.31954001 6.60653695,3.11633015e-14 14.7561133,3.11633015e-14 C22.9056896,3.11633015e-14 29.5122266,6.31954001 29.5122266,14.1150877 L29.5122266,36.2959397 Z" id="p"/><filter x="-2.6%" y="-2%" width="105.3%" height="104%" filterUnits="objectBoundingBox" id="g"><feOffset dx="-1" dy="1" in="SourceAlpha" result="shadowOffsetInner1"/><feComposite in="shadowOffsetInner1" in2="SourceAlpha" operator="arithmetic" k2="-1" k3="1" result="shadowInnerInner1"/><feColorMatrix values="0 0 0 0 0.730814201 0 0 0 0 0.459985976 0 0 0 0 0 0 0 0 0.349524457 0" in="shadowInnerInner1"/></filter><filter x="-1.7%" y="-3.8%" width="103.3%" height="107.6%" filterUnits="objectBoundingBox" id="i"><feOffset dx="-1" dy="1" in="SourceAlpha" result="shadowOffsetInner1"/><feComposite in="shadowOffsetInner1" in2="SourceAlpha" operator="arithmetic" k2="-1" k3="1" result="shadowInnerInner1"/><feColorMatrix values="0 0 0 0 0.730814201 0 0 0 0 0.459985976 0 0 0 0 0 0 0 0 0.349524457 0" in="shadowInnerInner1"/></filter><filter x="-2.6%" y="-2%" width="105.3%" height="104%" filterUnits="objectBoundingBox" id="k"><feOffset dx="-1" dy="1" in="SourceAlpha" result="shadowOffsetInner1"/><feComposite in="shadowOffsetInner1" in2="SourceAlpha" operator="arithmetic" k2="-1" k3="1" result="shadowInnerInner1"/><feColorMatrix values="0 0 0 0 0.730814201 0 0 0 0 0.459985976 0 0 0 0 0 0 0 0 0.349524457 0" in="shadowInnerInner1"/></filter><filter x="-1.7%" y="-3.8%" width="103.3%" height="107.6%" filterUnits="objectBoundingBox" id="m"><feOffset dx="-1" dy="1" in="SourceAlpha" result="shadowOffsetInner1"/><feComposite in="shadowOffsetInner1" in2="SourceAlpha" operator="arithmetic" k2="-1" k3="1" result="shadowInnerInner1"/><feColorMatrix values="0 0 0 0 0.730814201 0 0 0 0 0.459985976 0 0 0 0 0 0 0 0 0.349524457 0" in="shadowInnerInner1"/></filter><filter x="-3.4%" y="-2.8%" width="106.8%" height="105.5%" filterUnits="objectBoundingBox" id="q"><feOffset dx="-2" dy="1" in="SourceAlpha" result="shadowOffsetInner1"/><feComposite in="shadowOffsetInner1" in2="SourceAlpha" operator="arithmetic" k2="-1" k3="1" result="shadowInnerInner1"/><feColorMatrix values="0 0 0 0 0.730814201 0 0 0 0 0.459985976 0 0 0 0 0 0 0 0 0.4747226 0" in="shadowInnerInner1"/></filter><linearGradient x1="50%" y1="0%" x2="50%" y2="100%" id="c"><stop stop-color="#FAD961" offset="0%"/><stop stop-color="#FCCE01" stop-opacity="0" offset="100%"/></linearGradient><linearGradient x1="50%" y1="0%" x2="50%" y2="100%" id="d"><stop stop-color="#FAD961" offset="0%"/><stop stop-color="#FCCE01" stop-opacity="0" offset="100%"/></linearGradient><linearGradient x1="50%" y1="0%" x2="50%" y2="100%" id="e"><stop stop-color="#FAD961" offset="0%"/><stop stop-color="#FCCE01" stop-opacity="0" offset="100%"/></linearGradient></defs><g fill="none" fill-rule="evenodd"><path d="M87.5160715,150.749909 C107.748478,179.225013 245.549192,192.906186 255.450363,155.378358 C261.046513,134.1676 222.918805,103.287184 186.197377,93.4201558 C99.2102245,70.0467546 59.8411536,111.800209 87.5160715,150.749909 Z" fill="#E2F4F2"/><g transform="translate(0 59.13)"><mask id="b" fill="#fff"><use xlink:href="#a"/></mask><use fill="#FFF8DA" xlink:href="#a"/><g mask="url(#b)"><path fill="#F0DAA3" d="M4.281 107.366H205.485V140.629H4.281z" transform="translate(4.547 17.455)"/><path d="M31.3411292,11.0876254 L31.3411292,111.261538 L8.70800429,111.261538 L8.70800429,11.0876254 L31.3411292,11.0876254 Z M17.046524,19.4782609 L13.4728727,19.4782609 L13.4728727,111.090301 L17.046524,111.090301 L17.046524,19.4782609 Z M25.3850437,19.4782609 L21.8113924,19.4782609 L21.8113924,111.090301 L25.3850437,111.090301 L25.3850437,19.4782609 Z" fill="url(#c)" opacity=".475" transform="translate(4.547 17.455)"/><path d="M57.0267479,30.4374582 L57.0267479,117.939799 L51.070623,117.939458 L51.0706624,38.8280936 L47.4970111,38.8280936 L47.496623,117.939458 L42.731623,117.939458 L42.7321427,38.8280936 L39.1584914,38.8280936 L39.157623,117.939458 L34.393623,117.939799 L34.393623,30.4374582 L57.0267479,30.4374582 Z" fill="url(#d)" opacity=".397" transform="translate(4.547 17.455)"/><path d="M153.065856,0.47090301 L153.065856,114.643478 L148.598187,114.642903 L148.598792,12.1578595 L145.02514,12.1578595 L145.024187,114.642903 L141.451187,114.642903 L141.451489,12.1578595 L137.877838,12.1578595 L137.877187,114.642903 L134.304187,114.643478 L134.304187,0.47090301 L153.065856,0.47090301 Z" fill="url(#e)" opacity=".286" transform="translate(4.547 17.455)"/><g opacity=".574"><g transform="translate(5.255 85.565)"><use fill="#38B2A6" xlink:href="#f"/><use fill="#000" filter="url(#g)" xlink:href="#f"/></g><path d="M12.168435,8.80649785 C12.5158417,8.80649785 12.7974705,9.19044648 12.7974705,9.66407112 L12.7974705,38.1426315 C12.7974705,38.6162561 12.5158417,39.0002048 12.168435,39.0002048 C11.8210282,39.0002048 11.5393994,38.6162561 11.5393994,38.1426315 L11.5392216,14.7624978 L8.68827602,12.4059344 C8.3858283,12.1558349 8.3031978,11.6472811 8.50371562,11.2700477 C8.70423344,10.8928144 9.11196757,10.789752 9.41441528,11.0398514 L11.5392216,12.7964978 L11.5393994,9.66407112 C11.5393994,9.19044648 11.8210282,8.80649785 12.168435,8.80649785 Z" fill="#4C4C4C" fill-rule="nonzero" opacity=".458" transform="translate(5.255 85.565)"/><g transform="translate(5.255 85.565)"><use fill="#38B2A6" xlink:href="#h"/><use fill="#000" filter="url(#i)" xlink:href="#h"/></g></g><g opacity=".574"><g transform="translate(165.362 85.565)"><use fill="#38B2A6" xlink:href="#j"/><use fill="#000" filter="url(#k)" xlink:href="#j"/></g><path d="M12.168435,8.80649785 C12.5158417,8.80649785 12.7974705,9.19044648 12.7974705,9.66407112 L12.7974705,38.1426315 C12.7974705,38.6162561 12.5158417,39.0002048 12.168435,39.0002048 C11.8210282,39.0002048 11.5393994,38.6162561 11.5393994,38.1426315 L11.5392216,14.7624978 L8.68827602,12.4059344 C8.3858283,12.1558349 8.3031978,11.6472811 8.50371562,11.2700477 C8.70423344,10.8928144 9.11196757,10.789752 9.41441528,11.0398514 L11.5392216,12.7964978 L11.5393994,9.66407112 C11.5393994,9.19044648 11.8210282,8.80649785 12.168435,8.80649785 Z" fill="#4C4C4C" fill-rule="nonzero" opacity=".458" transform="translate(165.362 85.565)"/><g transform="translate(165.362 85.565)"><use fill="#38B2A6" xlink:href="#l"/><use fill="#000" filter="url(#m)" xlink:href="#l"/></g></g><path fill="#D1CCB7" transform="matrix(-1 0 0 1 67.268 56.6)" d="M0.906788449 5.93870656L37.2376992 27.7553367 37.2376992 30.347304 37.2376992 35.5444018 33.3451343 35.5444018 33.3451343 53.1475489 37.2376992 53.1475489 37.2376992 68.8191289 0.906788449 68.8191289z"/><path fill-opacity=".461" fill="#FFF" d="M9.781 33.536H29.344V53.099000000000004H9.781z" transform="translate(29.123 56.6)"/><path fill="#63656A" transform="matrix(-1 0 0 1 63.08 56.6)" d="M0.906974761 0L0.906974761 8.66187217 33.050193 27.6494097 33.050193 20.4659004z"/></g></g><g transform="rotate(-10 169.963 -659.421)"><mask id="o" fill="#fff"><use xlink:href="#n"/></mask><path d="M40.2993949,17.3901913 L23.873137,1.70263436 C23.717456,1.52884285 23.5478439,1.36967909 23.3670868,1.22026715 L23.2058333,1.06632758 C23.2058333,1.06632758 23.1995643,1.06806898 23.1887676,1.07259661 C22.4134973,0.492362837 21.4630423,0.138510787 20.4216864,0.138510787 C19.3803305,0.138510787 18.4288307,0.492362837 17.6542569,1.07259661 C17.6420671,1.06806898 17.6361463,1.06632758 17.6361463,1.06632758 L17.4748929,1.22026715 C17.2951806,1.36967909 17.1252202,1.52884285 16.9698875,1.70263436 L0.542584751,17.3901913 C0.180373992,17.7537952 -3.53302836e-05,18.2298934 -3.53302836e-05,18.705295 L-3.53302836e-05,37.2672033 C-3.53302836e-05,38.8059024 1.24645777,40.0520468 2.78446038,40.0520468 L38.0575193,40.0520468 C39.5955219,40.0520468 40.842711,38.8059024 40.842711,37.2672033 L40.842711,18.705295 C40.842711,18.2298934 40.6619539,17.7537952 40.2993949,17.3901913" fill="#F3AA06" mask="url(#o)"/></g><path d="M29.7034067,22.6252513 C29.7034067,27.7526232 25.5473866,31.9075985 20.421756,31.9075985 C15.2943841,31.9075985 11.1383639,27.7526232 11.1383639,22.6252513 C11.1383639,17.4996207 15.2943841,13.3432523 20.421756,13.3432523 C25.5473866,13.3432523 29.7034067,17.4996207 29.7034067,22.6252513 Z" stroke="#2094F1" stroke-width=".114" transform="rotate(-10 168.764 -659.317)"/><path d="M38.0576934,34.6924072 L38.0576934,13.3432175 L27.8468328,3.13235685 L5.57017457,3.13235685 C4.0314754,3.13235685 2.78463452,4.37954601 2.78463452,5.91685206 L2.78463452,34.6924072 L38.0576934,34.6924072 Z" fill="#F8F8F6" transform="rotate(-10 168.764 -659.317)"/><path d="M38.0576934,40.2618155 L2.78463452,40.2618155 C1.24663191,40.2618155 0.00013931183,39.0156712 0.00013931183,37.4769721 L0.00013931183,18.9119293 L38.0576934,40.2618155 Z" fill="#FFBF0D" transform="rotate(-10 168.764 -659.317)"/><path d="M2.78453004,40.2618155 L38.0575889,40.2618155 C39.5955915,40.2618155 40.8424324,39.0156712 40.8424324,37.4769721 L40.8424324,18.9119293 L2.78453004,40.2618155 Z" fill="#FCCE01" transform="rotate(-10 168.764 -659.317)"/><path d="M27.8466935,3.13228719 L27.8466935,10.5583043 C27.8466935,12.0956104 29.0938827,13.3431478 30.6318853,13.3431478 L38.0575541,13.3431478 L27.8466935,3.13228719 Z" fill="#C8C9CB" transform="rotate(-10 168.764 -659.317)"/><path fill="#E7E7E7" d="M9.28234726 17.0555991L32.4885637 17.0555991 32.4885637 15.199269 9.28234726 15.199269zM9.28234726 20.768956L32.4885637 20.768956 32.4885637 18.9119293 9.28234726 18.9119293zM9.28234726 13.3432871L23.2058681 13.3432871 23.2058681 11.4862604 9.28234726 11.4862604z" transform="rotate(-10 168.764 -659.317)"/><g><path d="M56.7108432,71.4073892 L5.3970913,60.5692594 C1.72206649,59.7935089 -0.628028661,56.184684 0.148188047,52.5101254 L8.61850719,12.4055954 L73.2412288,26.0548884 L64.7704435,66.1589521 C63.9942267,69.833977 60.3863342,72.1836059 56.7108432,71.4073892" fill="#FFF" transform="translate(150.245 58.22)"/><path fill="#C8C9CB" d="M49.5524002 63.6885784L50.0083401 63.785081 57.6138653 27.7742201 65.6725331 29.4763025 58.1630444 65.0307573 49.6484366 63.2326385 49.5524002 63.6885784 50.0083401 63.785081 49.5524002 63.6885784 49.4558976 64.1449845 58.8828514 66.1361085 66.7778844 28.7569617 56.8945245 26.669335 48.9999577 64.0484818 49.4558976 64.1449845 49.5524002 63.6885784" transform="translate(150.245 58.22)"/><path fill="#C8C9CB" d="M58.5229479 65.583666L58.6194505 65.1272599 6.2977824 54.0765447 13.8072711 18.5216237 65.6725331 29.4763025 58.067008 65.4871634 58.5229479 65.583666 58.6194505 65.1272599 58.5229479 65.583666 58.9788878 65.6797024 66.7778844 28.7569617 13.0879304 17.4167386 5.19289736 54.7958854 58.8828514 66.1361085 58.9788878 65.6797024 58.5229479 65.583666" transform="translate(150.245 58.22)"/><path fill="#C8C9CB" d="M64.3303542 38.0878791L64.4268568 37.631473 12.1051887 26.5807577 13.8072711 18.5216237 65.6725331 29.4763025 63.8744143 37.9913765 64.3303542 38.0878791 64.4268568 37.631473 64.3303542 38.0878791 64.7862941 38.1839155 66.7778844 28.7569617 13.0879304 17.4167386 11.0003037 27.3000985 64.6902577 38.6403216 64.7862941 38.1839155 64.3303542 38.0878791M60.4711819 56.3595076L60.5672183 55.9035677 8.24601641 44.8523862 9.94809881 36.7941846 61.8133608 47.7483972 60.0147758 56.2634712 60.4711819 56.3595076 60.5672183 55.9035677 60.4711819 56.3595076 60.9271218 56.4560102 62.9182459 47.0285902 9.22829185 35.6888333 7.14113137 45.5721932 60.8306192 56.9119501 60.9271218 56.4560102 60.4711819 56.3595076" transform="translate(150.245 58.22)"/><path fill="#C8C9CB" d="M32.1217897 60.0070268L32.5781958 60.1030632 40.1837209 24.0931347 48.242855 25.7947509 40.7329001 61.3492057 32.2182923 59.5506207 32.1217897 60.0070268 32.5781958 60.1030632 32.1217897 60.0070268 32.0252871 60.4629667 41.4527071 62.4540908 49.3477401 25.0754101 39.4643802 22.9877835 31.5693472 60.3664641 32.0252871 60.4629667 32.1217897 60.0070268M14.6473567 56.3161513L15.1032966 56.4121877 22.7088218 20.401793 30.7674897 22.1038754 23.2580009 57.6583302 14.7433931 55.8597452 14.6473567 56.3161513 15.1032966 56.4121877 14.6473567 56.3161513 14.5508541 56.7720912 23.9778079 58.7632153 31.8723747 21.3845347 21.9890148 19.296908 14.0949142 56.6755886 14.5508541 56.7720912 14.6473567 56.3161513" transform="translate(150.245 58.22)"/><path d="M73.2412288,26.0548884 L8.61850719,12.4055954 L10.3336431,4.28678825 C10.7490239,2.3180416 12.6818735,1.059778 14.6506201,1.47515884 L72.1447353,13.618638 C74.1130157,14.034485 75.3717455,15.9673346 74.9558985,17.935615 L73.2412288,26.0548884" fill="#38B2A6" transform="translate(150.245 58.22)"/><path d="M68.1485013,17.4535681 C67.8860328,18.6978458 66.6645987,19.4931766 65.420321,19.2302419 C64.1765095,18.9677734 63.3811787,17.7463393 63.6436472,16.5020616 C63.9065819,15.2582501 65.128016,14.4629194 66.3718275,14.7253878 C67.6161052,14.9883225 68.4114359,16.2097566 68.1485013,17.4535681" fill="#2B948A" transform="translate(150.245 58.22)"/><path d="M64.9601853,16.0330682 L66.0557464,10.8452367 C66.1825518,10.244776 66.7718238,9.86063027 67.3727508,9.98743564 C67.9732115,10.1147072 68.3573572,10.7039792 68.2305518,11.30444 L67.1349907,16.4922715 C67.0077191,17.0927322 66.4184471,17.4768779 65.8175202,17.3500726 C65.2170594,17.2232672 64.8329137,16.633529 64.9601853,16.0330682 Z" fill="#E2F4F2" transform="translate(150.245 58.22)"/><path d="M20.9755042,7.49002248 C20.7125696,8.7343002 19.4911355,9.52963095 18.2468577,9.26716248 C17.0030462,9.00422781 16.2077155,7.78279371 16.4706501,6.53898219 C16.7331186,5.29470448 17.9550189,4.49937372 19.1983642,4.7618422 C20.442642,5.02477686 21.2379727,6.24621096 20.9755042,7.49002248" fill="#2B948A" transform="translate(150.245 58.22)"/><path d="M17.7867221,6.0695226 L18.8822832,0.881691046 C19.0090886,0.281230313 19.5988268,-0.102915374 20.1992875,0.0243561948 C20.7997483,0.151161567 21.1838939,0.740433591 21.0570886,1.34089432 L19.9610613,6.52872587 C19.8347221,7.12918661 19.2449839,7.51333229 18.6445231,7.38652692 C18.0435962,7.25972155 17.6599167,6.66998333 17.7867221,6.0695226 Z" fill="#E2F4F2" transform="translate(150.245 58.22)"/><path d="M32.9460246,10.0186708 C32.6830899,11.2624823 31.4616558,12.0582793 30.2173781,11.7953446 C28.9735666,11.5324099 28.1782359,10.3109758 28.4411705,9.0671643 C28.703639,7.82335278 29.9250731,7.02755583 31.1688846,7.2904905 C32.4131623,7.55295897 33.2084931,8.77439307 32.9460246,10.0186708" fill="#2B948A" transform="translate(150.245 58.22)"/><path d="M29.7572425,8.5977047 L30.8532698,3.40987315 C30.9796089,2.80941242 31.5693472,2.42526673 32.1702741,2.55207211 C32.7707348,2.67934367 33.1544143,3.26908189 33.0280751,3.86954263 L31.9320478,9.05737418 C31.8047763,9.65783491 31.2155042,10.0415144 30.6150435,9.91470903 C30.0145828,9.78790366 29.6299709,9.19816544 29.7572425,8.5977047 Z" fill="#E2F4F2" transform="translate(150.245 58.22)"/><path d="M56.5374182,15.001376 C56.2749497,16.2456537 55.0535156,17.0409845 53.8097041,16.7780498 C52.5654264,16.5155813 51.7700956,15.2941472 52.0325641,14.0498695 C52.2954988,12.806058 53.5169329,12.0107272 54.7612106,12.2731957 C56.0050221,12.5356642 56.8003529,13.7575645 56.5374182,15.001376" fill="#2B948A" transform="translate(150.245 58.22)"/><path d="M53.348636,13.5808761 L54.4446633,8.39304456 C54.5710025,7.79258383 55.1612069,7.40843814 55.7616677,7.53524352 C56.3621284,7.66204889 56.7458079,8.25178711 56.6194687,8.85224784 L55.5234414,14.0400794 C55.396636,14.6405401 54.8068978,15.0246858 54.2064371,14.8978804 C53.6059763,14.7706089 53.2218307,14.1813368 53.348636,13.5808761 Z" fill="#E2F4F2" transform="translate(150.245 58.22)"/><path d="M61.3393648 42.3700707C61.0377359 43.7984959 59.6349514 44.7117743 58.2065262 44.4101453 56.778101 44.1085164 55.8643564 42.7057319 56.1664515 41.2773067 56.4680805 39.8488815 57.8708649 38.9356031 59.298824 39.2372321 60.7277154 39.538861 61.6409938 40.9411793 61.3393648 42.3700707M26.2356859 34.6643851C25.9340569 36.0928103 24.5312725 37.0060887 23.1028473 36.7044597 21.6744221 36.4028308 20.7606775 35.0000463 21.0627726 33.5716211 21.3644016 32.1431959 22.767186 31.2299175 24.195145 31.5315464 25.6240364 31.8331754 26.5373148 33.2354936 26.2356859 34.6643851M13.8209703 51.3600369C13.5193414 52.7884622 12.1165569 53.7017406 10.6881317 53.4001116 9.2597065 53.0984826 8.3459619 51.6956982 8.64805706 50.267273 8.94968601 48.8388478 10.3524704 47.9255694 11.7804295 48.2271983 13.2093209 48.5288273 14.1225993 49.9311455 13.8209703 51.3600369" fill="#FCCE01" transform="translate(150.245 58.22)"/><path d="M57.5874358 60.6749425L57.3594658 60.6269243C57.1207734 61.7616459 56.1184515 62.5397274 55.0037763 62.5397274 54.8387429 62.5397274 54.6713784 62.5229444 54.5030816 62.4870473 53.36836 62.2483548 52.5902785 61.2460329 52.5902785 60.1318239 52.5902785 59.9667905 52.6070615 59.7989598 52.6429587 59.630663 52.8816511 58.4959414 53.883973 57.7178599 54.998182 57.7178599 55.1632154 57.7178599 55.3310461 57.734643 55.4993429 57.7705401 56.6340645 58.0092326 57.412146 59.0115544 57.412146 60.1257634 57.412146 60.2907969 57.3948967 60.4586275 57.3594658 60.6269243L57.5874358 60.6749425 57.8154057 60.7229608C57.8578296 60.5229626 57.8783422 60.3229644 57.8783422 60.1257634 57.8783422 58.794307 56.9496793 57.6003785 55.5953793 57.314134 55.3953811 57.2717101 55.195383 57.2516637 54.998182 57.2516637 53.6667256 57.2516637 52.472797 58.1803266 52.1865526 59.5346266 52.1441287 59.7346248 52.1240823 59.9346229 52.1240823 60.1318239 52.1240823 61.4632804 53.0527451 62.6572089 54.406579 62.9434534 54.6065771 62.985411 54.8065753 63.0059237 55.0037763 63.0059237 56.3356989 63.0059237 57.5296274 62.0772608 57.8154057 60.7229608L57.5874358 60.6749425M37.2957968 27.626113L37.0678269 27.5780948C36.8291344 28.7128164 35.8268125 29.4908979 34.7121373 29.4908979 34.5471039 29.4908979 34.3797394 29.4741149 34.2114426 29.4382178 33.076721 29.1995253 32.2986395 28.1972034 32.2986395 27.0829944 32.2986395 26.917961 32.3154226 26.7501303 32.3513197 26.5818335 32.5900122 25.4471119 33.592334 24.6690304 34.706543 24.6690304 34.8715765 24.6690304 35.0394071 24.6858135 35.2077039 24.7217106 36.3424255 24.9604031 37.120507 25.9627249 37.120507 27.0769339 37.120507 27.2419674 37.1032578 27.409798 37.0678269 27.5780948L37.2957968 27.626113 37.5237668 27.6741313C37.5661906 27.4741331 37.5867032 27.2741349 37.5867032 27.0769339 37.5867032 25.7454775 36.6580404 24.551549 35.3037404 24.2653045 35.1037422 24.2228806 34.903744 24.2028342 34.706543 24.2028342 33.3750866 24.2028342 32.1811581 25.1314971 31.8949136 26.4857971 31.8524897 26.6857953 31.8324433 26.8857934 31.8324433 27.0829944 31.8324433 28.4144509 32.7611062 29.6083794 34.11494 29.8946239 34.3149382 29.9365815 34.5149363 29.9570942 34.7121373 29.9570942 36.04406 29.9570942 37.2379885 29.0284313 37.5237668 27.6741313L37.2957968 27.626113" fill="#38B2A6" transform="translate(150.245 58.22)"/></g><g fill="#E7E7E7"><path d="M8.37830635,15.7087251 L15.4718181,16.3705579 C16.0968348,16.4287786 16.554895,16.9818756 16.4958181,17.6060361 C16.4418783,18.1942368 15.947002,18.6360294 15.3682194,18.6360294 C15.3331157,18.6360294 15.2971559,18.6343171 15.261196,18.6308923 L8.16768428,17.9690595 C7.54266756,17.9108388 7.08460736,17.3577418 7.14282809,16.7335813 C7.20104883,16.1094207 7.74729632,15.6505043 8.37830635,15.7087251 Z M13.3041231,5.3060495 C13.7039625,5.78893913 13.6371799,6.50471171 13.1551465,6.90455117 L7.66698595,11.4543304 C7.45550769,11.6298488 7.19865151,11.7154676 6.94265151,11.7154676 C6.61730033,11.7154676 6.29366154,11.5750528 6.06848428,11.3053538 C5.669501,10.8224642 5.73628361,10.1066916 6.21831706,9.70685217 L11.7047652,5.15707291 C12.188511,4.75723344 12.9042836,4.82401605 13.3041231,5.3060495 Z M1.89868094,0.00393846154 C2.52284147,0.0621591973 2.98175786,0.615256187 2.92353712,1.23941672 L2.2651291,8.33549699 C2.2111893,8.92369766 1.71631304,9.3654903 1.13667425,9.3654903 C1.10157057,9.3654903 1.0656107,9.36377793 1.03050702,9.36035318 C0.405490301,9.30298863 -0.053426087,8.74989164 0.00565083612,8.1257311 L0.663202676,1.02965084 C0.721423411,0.405490301 1.27965753,-0.0500013378 1.89868094,0.00393846154 Z" transform="translate(225.59 57.365)"/></g><g fill="#E7E7E7"><path d="M9.39716923,16.325608 C9.4125806,16.9523371 8.91684816,17.472899 8.28926288,17.4874542 L1.16150368,17.6578355 L1.13496187,17.6578355 L1.13496187,17.6578355 C0.519363211,17.6578355 0.0150688963,17.1672401 0.000513712373,16.5499291 C-0.0148976589,15.9232 0.480834783,15.4034943 1.10842007,15.3880829 L8.23532308,15.2185579 C8.85605886,15.1706114 9.38261405,15.6988789 9.39716923,16.325608 Z M5.54073043,4.56852977 L10.6992589,9.48903813 C11.1521819,9.92141271 11.1693057,10.64061 10.7369311,11.0935331 C10.5134662,11.3272722 10.215513,11.4454261 9.91584749,11.4454261 C9.63416187,11.4454261 9.35247625,11.3409712 9.13243612,11.1312054 L3.97305151,6.21069699 C3.51927224,5.77746622 3.50300468,5.05998127 3.93623545,4.60620201 C4.36861003,4.15156656 5.08609498,4.135299 5.54073043,4.56852977 Z M15.7800455,0.00119866221 C16.4495839,-0.0261993311 16.9264803,0.48237592 16.9418916,1.10910502 L17.1105605,8.23258328 C17.1251157,8.85931237 16.6293833,9.37901806 16.001798,9.39442943 L15.9752562,9.39442943 L15.9752562,9.39442943 C15.3605137,9.39442943 14.8553632,8.90383411 14.8416642,8.28652308 L14.6729953,1.16218863 C14.6584401,0.535459532 15.1533164,0.0157538462 15.7800455,0.00119866221 Z" transform="translate(67.195)"/></g><g><path fill="#E3DECC" d="M34.4594856 1.00167366L0.40607842 26.9464955 0.40607842 129.45159 69.9340149 129.45159 69.9340149 26.9464955z" transform="translate(61.48 54.761)"/><path fill="#FFF" d="M31.5736036 1.00167366L0.40607842 26.9464955 0.40607842 129.45159 64.0418169 129.45159 64.0418169 26.9464955z" transform="translate(61.48 54.761)"/><g transform="translate(78.696 146.267)"><use fill="#FCCD00" xlink:href="#p"/><use fill="#000" filter="url(#q)" xlink:href="#p"/><ellipse fill="#4C4C4C" cx="22.954" cy="21.448" rx="2.049" ry="2.062"/></g><path d="M37.1709157,3.29963089 L67.1703188,27.6216309 L67.1703188,38.8936309 L37.1546659,14.7344552 L3.53531881,41.3276309 L3.53531881,29.9066309 L37.1709157,3.29963089 Z" fill-opacity=".128" fill="#2B948A" fill-rule="nonzero" transform="translate(58.647 52.227)"/><path d="M37.242942,0 L74.4739124,29.906 L74.4743907,41.09699 L37.2265991,11.3936831 L0.841749382,39.909 L0.841749382,28.527 L37.242942,0 Z" fill="#63656A" fill-rule="nonzero" transform="translate(58.647 52.227)"/><path d="M34.3935508 46.1939397L34.3935508 52.4509397 22.9175508 52.4512754 22.9175508 46.1939397 34.3935508 46.1939397zM48.4685508 46.1939397L48.4692621 52.4512754 37.6735508 52.4509397 37.6735508 46.1939397 48.4685508 46.1939397zM34.3935508 36.2959397L34.3935508 42.8949397 22.9175508 42.8949397 22.9175508 36.2959397 34.3935508 36.2959397zM48.4692621 36.2959397L48.4685508 42.8949397 37.6735508 42.8949397 37.6735508 36.2959397 48.4692621 36.2959397zM34.3935508 74.2408023L34.3935508 80.4978023 22.9175508 80.4981379 22.9175508 74.2408023 34.3935508 74.2408023zM48.4685508 74.2408023L48.4692621 80.4981379 37.6735508 80.4978023 37.6735508 74.2408023 48.4685508 74.2408023zM34.3935508 64.3428023L34.3935508 70.9418023 22.9175508 70.9418023 22.9175508 64.3428023 34.3935508 64.3428023zM48.4692621 64.3428023L48.4685508 70.9418023 37.6735508 70.9418023 37.6735508 64.3428023 48.4692621 64.3428023z" fill="#FCCD00" transform="translate(58.647 52.227)"/><path d="M72.207068,69.5279365 L100.489618,84.4514957 L100.489618,88.8760073 L97.4593707,88.8760073 L97.4593707,101.919464 L100.489618,101.919464 L100.489618,109.223821 L97.4593707,109.223821 L97.4593707,121.265168 L100.489618,121.265168 L100.489618,131.985235 L72.207068,131.985235 L72.207068,69.5279365 Z M94.5974205,108.416443 L79.2777056,108.416443 L79.2777056,121.379279 L94.5974205,121.379279 L94.5974205,108.416443 Z M94.5974205,88.8141913 L79.2777056,88.8141913 L79.2777056,101.870429 L94.5974205,101.870429 L94.5974205,88.8141913 Z" fill="#CCC8B4" transform="translate(58.647 52.227)"/><path fill="#63656A" d="M72.207068 63.6357385L72.207068 70.9406702 100.079726 84.6544526 100.079726 78.5962882z" transform="translate(58.647 52.227)"/></g><g><path d="M15.0129978,13.0297843 C13.250894,13.0276754 11.8251663,14.493515 11.8251663,16.3034715 C11.8251663,18.1127242 13.250894,19.5806749 15.0144053,19.5785661 C16.7751017,19.5806749 18.2057554,18.1127242 18.2057554,16.3034715 C18.2057554,14.4949224 16.7779165,13.0297843 15.0129978,13.0297843 L15.0129978,13.0297843 Z M15.5323399,32.3678908 L-7.03715592e-05,16.4287329 L15.5323399,0.237644752 L68.7033667,0.237644752 C70.9125057,0.237644752 72.7033667,2.02850575 72.7033667,4.23764475 L72.7033667,28.3707056 C72.7035636,30.5798446 70.9127026,32.3707056 68.7035636,32.3707056 C68.7034979,32.3707056 68.7034323,32.3707056 68.7033667,32.3705087 L15.5323399,32.3678908 L15.5323399,32.3678908 Z" fill="#F9A600" transform="rotate(-8 980.487 -1120.584)"/><g fill="#FFF" fill-rule="nonzero"><path d="M7.6105537,8.56187291 C11.8137464,8.56187291 15.2211074,11.9692339 15.2211074,16.1724266 L15.2211074,16.1724266 L0,16.1724266 C0,11.9692339 3.40736095,8.56187291 7.6105537,8.56187291 Z M7.6105537,0 C9.71215007,0 11.4158305,1.70368048 11.4158305,3.80527685 C11.4158305,5.90687322 9.71215007,7.6105537 7.6105537,7.6105537 C5.50895733,7.6105537 3.80527685,5.90687322 3.80527685,3.80527685 C3.80527685,1.70368048 5.50895733,0 7.6105537,0 Z" transform="rotate(-8 1017.703 -1332.525)"/><path d="M7.6105537,8.56187291 C11.8137464,8.56187291 15.2211074,11.9692339 15.2211074,16.1724266 L15.2211074,16.1724266 L0,16.1724266 C0,11.9692339 3.40736095,8.56187291 7.6105537,8.56187291 Z M7.6105537,0 C9.71215007,0 11.4158305,1.70368048 11.4158305,3.80527685 C11.4158305,5.90687322 9.71215007,7.6105537 7.6105537,7.6105537 C5.50895733,7.6105537 3.80527685,5.90687322 3.80527685,3.80527685 C3.80527685,1.70368048 5.50895733,0 7.6105537,0 Z" transform="rotate(-8 1008.19 -1468.57)"/><path d="M7.6105537,7.81187291 C9.8702979,7.81187291 11.9206355,8.70840784 13.425325,10.1651478 C15.1037141,11.7900522 16.1029697,14.1120455 15.9570465,16.6642404 L15.9570465,16.6642404 L-0.716232715,16.934118 C-0.947000491,14.3258768 0.0209983829,11.9383735 1.69874948,10.2606224 C3.21171212,8.74765976 5.30185054,7.81187291 7.6105537,7.81187291 Z M7.6105537,-0.75 C8.86845866,-0.75 10.0072779,-0.240133271 10.8316208,0.584209699 C11.6559638,1.40855267 12.1658305,2.54737188 12.1658305,3.80527685 C12.1658305,5.06318182 11.6559638,6.20200103 10.8316208,7.026344 C10.0072779,7.85068697 8.86845866,8.3605537 7.6105537,8.3605537 C6.35264873,8.3605537 5.21382952,7.85068697 4.38948655,7.026344 C3.56514358,6.20200103 3.05527685,5.06318182 3.05527685,3.80527685 C3.05527685,2.54737188 3.56514358,1.40855267 4.38948655,0.584209699 C5.21382952,-0.240133271 6.35264873,-0.75 7.6105537,-0.75 L7.6105537,-0.75 Z" transform="rotate(-8 1033.353 -1401.975)" stroke="#F9A600" stroke-width="1.5"/></g></g><path d="M171.804793,135.352808 C167.065618,135.585449 162.726035,136.897015 159.201686,138.596318 M153.112121,142.523474 C151.508943,143.929482 150.510902,145.28131 150.285748,146.300003 C148.546185,154.170525 171.186677,150.860051 179.650733,141.813383 C180.502005,140.903514 180.789176,139.035277 179.650733,138.313701" stroke="#63656A" stroke-linecap="round"/><g><path d="M0,20.0297891 C0,21.2146787 0.96099198,22.1759652 2.14617614,22.1759652 L3.57646923,22.1759652 L3.57646923,27.1821384 L8.58411537,22.1759652 L25.0361684,22.1759652 C26.2222364,22.1759652 27.1823446,21.2146787 27.1823446,20.0297891 L27.1823446,2.14626452 C27.1823446,0.960785759 26.2222364,8.83806236e-05 25.0361684,8.83806236e-05 L2.14617614,8.83806236e-05 C0.96099198,8.83806236e-05 0,0.960785759 0,2.14626452 L0,20.0297891 Z" fill="#98A7D3" transform="rotate(5 -122.343 947.796)"/><path d="M2.26264462,5.92034056 C1.83860472,5.49630066 1.15103391,5.49774271 0.726063684,5.92271294 L0.318091123,6.3306855 C-0.103314207,6.75209083 -0.107941254,7.44360644 0.31571874,7.86726644 L4.13555636,11.6871041 C4.34757631,11.899124 4.62547898,12.0047735 4.90349795,12.0042967 C5.18142816,12.0012187 5.46177289,11.8950961 5.67522486,11.6816441 L13.3779943,3.97887462 C13.8049083,3.55196069 13.8060521,2.86180396 13.3810819,2.43683374 L12.9731093,2.02886118 C12.551704,1.60745585 11.8577439,1.6052733 11.4310685,2.03194874 L4.90266063,8.56035657 L2.26264462,5.92034056 Z" transform="rotate(5 -171.641 1025.884)" fill="#FFF" fill-rule="nonzero"/></g></g></svg>