<svg viewBox="0 0 424 153" xmlns="http://www.w3.org/2000/svg"><g fill="none" fill-rule="evenodd"><path fill="#8AA4A8" d="M25.9227742 67.3216133L31.9571252 59.0199613 37.3880412 67.3216133 43.4223922 59.0199613 48.8533082 67.3216133 54.8876593 59.0199613 60.3185752 67.3216133 60.3185752 21.4248724 84.4559794 21.4248724 84.4559794 75.0302902 162.299108 75.0302902 162.299108 151.222019 25.9227742 151.222019z" transform="translate(15.2)"/><path fill="#FFF" d="M0 95.2296016L26.1772755 95.2296016 26.1772755 123.397635 0 123.397635z" transform="translate(15.2)"/><path d="M162.299108,72.8042031 C162.299108,65.953733 156.243793,60.4003297 148.774182,60.4003297 C141.304572,60.4003297 135.249257,65.953733 135.249257,72.8042031 C139.982981,72.8042031 158.24163,72.8042031 162.299108,72.8042031 Z" fill="#8AA4A8" transform="translate(15.2)"/><path d="M68.7517055,122.740757 L68.7517055,85.3529451 L90.2752431,85.3529451 L90.2747055,98.9099451 L104.818174,98.9100713 L104.818174,122.740757 L68.7517055,122.740757 Z" fill="#E9E8E6" transform="translate(15.2)"/><path d="M87.6866014,104.667436 L87.6866014,108.050311 L84.5307854,108.050311 L84.5307854,104.667436 L87.6866014,104.667436 Z M93.9982334,104.667436 L93.9982334,108.050311 L90.8424174,108.050311 L90.8424174,104.667436 L93.9982334,104.667436 Z M100.309865,104.667436 L100.309865,108.050311 L97.1540494,108.050311 L97.1540494,104.667436 L100.309865,104.667436 Z" fill="#8AA4A8" transform="translate(15.2)"/><path d="M33.4453588 72.8042031L33.4453588 76.1870777 30.4310828 76.1870777 30.4310828 72.8042031 33.4453588 72.8042031zM44.8996079 72.8042031L44.8996079 76.1870777 41.8853318 76.1870777 41.8853318 72.8042031 44.8996079 72.8042031zM56.3538569 72.8042031L56.3538569 76.1870777 53.3395809 76.1870777 53.3395809 72.8042031 56.3538569 72.8042031zM68.7517055 40.3928191C69.8787826 40.3928191 70.6301674 40.9566315 71.0058598 42.0842564L71.0058598 50.5414429 66.4975512 50.5414429 66.4975512 42.0842564C66.8732436 40.9566315 67.6246283 40.3928191 68.7517055 40.3928191zM75.5141683 40.3928191C76.6412454 40.3928191 77.3926302 40.9566315 77.7683226 42.0842564L77.7683226 50.5414429 73.260014 50.5414429 73.260014 42.0842564C73.6357064 40.9566315 74.3870912 40.3928191 75.5141683 40.3928191z" fill="#B8D9D0" transform="translate(15.2)"/><path d="M71.5130445,0 C71.5130445,3.59430424 79.571646,4.87240584 79.571646,10.183862 C79.571646,11.8658232 79.0121931,13.064228 77.8932873,13.7790765 L84.5307854,13.7781663 L84.5307854,19.1696226 L59.7350884,19.1696226 L59.7350884,13.7781663 L66.3177818,13.7789837 C65.2354124,13.0587823 64.6942278,11.8604084 64.6942278,10.183862 C64.6942278,4.80088831 71.5130445,3.59430424 71.5130445,0 Z" fill="#8AA4A8" transform="translate(15.2)"/><path fill="#FFEDE4" d="M9.30868764 85.7149657L35.7574312 85.7149657 26.4487435 95.3567004 0 95.3567004z" transform="translate(15.2)"/><path fill="#E7E7E7" d="M35.7574312 85.7149657L45.3375868 95.3960377 45.3375868 123.247646 26.1772755 123.247646 26.1772755 95.3960377z" transform="translate(15.2)"/><path fill="#F8A588" d="M35.7574312 85.7149657L45.3375868 95.3960377 26.1772755 95.3960377z" transform="translate(15.2)"/><path d="M153.282491,60.9641421 C153.282491,59.0958321 151.516357,57.5812675 149.337721,57.5812675 C147.159085,57.5812675 145.392951,59.0958321 145.392951,60.9641421 C147.365336,60.9641421 151.967568,60.9641421 153.282491,60.9641421 Z" fill="#8AA4A8" transform="translate(15.2)"/><path d="M155.536645,103.117413 L155.536645,104.377699 L139.572177,104.376827 L138.389177,103.116827 L155.536645,103.117413 Z M155.536645,98.0762662 L155.536645,99.3365528 L134.842177,99.3358269 L133.660177,98.0758269 L155.536645,98.0762662 Z M155.536645,93.0351198 L155.536645,94.2954064 L130.112177,94.2948269 L128.930177,93.0348269 L155.536645,93.0351198 Z M155.536645,87.9939733 L155.536645,89.2542599 L125.382177,89.2538269 L124.200177,87.9938269 L155.536645,87.9939733 Z M155.536645,82.9528269 L155.536645,84.2131135 L120.652177,84.2128269 L119.470177,82.9528269 L155.536645,82.9528269 Z" fill="#B8D9D0" transform="translate(15.2)"/><path fill="#FFF8DA" d="M5.68497881e-13 111.734474L135.467401 111.734474 135.467401 119.726335 143.484105 119.726335 143.490334 127.718195 151.500809 127.718195 151.513267 135.710056 159.517512 135.710056 159.536201 143.701916 167.534216 143.701916 167.559134 151.693777 5.68497881e-13 151.787358z" transform="translate(.803)"/><g transform="translate(271.981 27.939)"><path d="M75.554803,84.6710774 C83.5219539,84.6710774 90.2273021,90.0787694 92.2073768,97.4273026 L92.498369,97.4166159 L92.498369,97.4166159 L92.801008,97.4128415 C99.3776667,97.4128415 104.709102,102.74948 104.709102,109.332556 L104.709102,109.332556 L104.709102,123.307394 L41.0623929,123.307394 L41.0623929,109.332556 L41.1252084,109.333194 C40.0330076,107.099607 39.4198972,104.588529 39.4198972,101.934113 C39.4198972,92.6270042 46.9574436,85.0821021 56.2554783,85.0821021 C59.688612,85.0821021 62.8817341,86.1107168 65.5440372,87.876855 C68.3657124,85.8583077 71.8217466,84.6710774 75.554803,84.6710774 Z" fill="#8AA4A8"/><path d="M127.710095,92.364945 C134.080112,92.364945 139.441265,96.6886221 141.02434,102.56406 L141.227851,102.556134 L141.227851,102.556134 L141.498924,102.552346 C146.757149,102.552346 151.019782,106.819139 151.019782,112.082495 L151.019782,112.082495 L151.019782,123.255774 L100.132437,123.255774 L100.132437,112.082495 L100.182397,112.082468 C99.3093157,110.296786 98.819215,108.289299 98.819215,106.16723 C98.819215,98.7259337 104.845697,92.6935709 112.279739,92.6935709 C115.024662,92.6935709 117.577684,93.5159988 119.706287,94.9281098 C121.962028,93.314233 124.72531,92.364945 127.710095,92.364945 Z" fill="#E4F4F3"/><path fill="#8AA4A8" d="M35.1083459 0L40.651769 17.2630352 29.5649229 17.2630352zM29.565 18.496H40.652V25.894H29.565zM26.28 36.581H43.937V123.307H26.28zM29.5649229 27.1276267L40.651769 27.1276267 43.9367604 35.3481197 26.2799315 35.3481197z"/><rect fill="#B8D9D0" x="29.565" y="39.047" width="1.232" height="6.576" rx=".616"/><rect fill="#B8D9D0" x="32.85" y="39.047" width="1.232" height="6.576" rx=".616"/><rect fill="#B8D9D0" x="36.135" y="39.047" width="1.232" height="6.576" rx=".616"/><rect fill="#B8D9D0" x="39.42" y="39.047" width="1.232" height="6.576" rx=".616"/><ellipse fill="#B8D9D0" cx="35.314" cy="55.077" rx="5.338" ry="5.343"/><path fill="#FFF" d="M0 85.326H36.135V87.381H0zM0 90.669H36.135V123.96199999999999H0z"/><rect fill="#B8D9D0" x="3.696" y="94.536" width="1.232" height="21.373" rx=".616"/><rect fill="#B8D9D0" x="9.034" y="94.536" width="1.232" height="21.373" rx=".616"/><rect fill="#B8D9D0" x="14.782" y="94.536" width="1.232" height="21.373" rx=".616"/><rect fill="#B8D9D0" x="20.121" y="94.536" width="1.232" height="21.373" rx=".616"/><rect fill="#B8D9D0" x="25.869" y="94.536" width="1.232" height="21.373" rx=".616"/><rect fill="#B8D9D0" x="31.207" y="94.536" width="1.232" height="21.373" rx=".616"/></g><g><path d="M28.795003,58.1074091 C35.2671044,58.1074091 40.6942792,62.5856379 42.1526582,68.615373 C42.3877208,68.5974429 42.6254657,68.5885376 42.8652886,68.5885376 C47.9965588,68.5885376 52.1765755,72.6653123 52.3490161,77.7595563 L52.354551,77.7595251 L52.354551,88.8957241 L1.30886377,88.8957241 L1.30829157,77.9828816 C0.469648095,76.2293628 0,74.2652938 0,72.1914255 C0,64.7748235 6.00648229,58.7624796 13.4158537,58.7624796 C16.0502403,58.7624796 18.5072816,59.522526 20.5800629,60.8355022 C22.8709251,59.1218516 25.7146117,58.1074091 28.795003,58.1074091 Z" fill="#E4F4F3" transform="translate(173.857 62.478)"/><path d="M240.20978,-3.55271368e-14 L240.735891,10.4093609 C243.998813,10.5993334 246.586295,13.3081451 246.586295,16.6218855 C246.586295,19.5331315 244.589202,21.9774761 241.891536,22.6571343 L241.93509,25.079 L243.716863,25.0790141 L243.716863,26.6746987 L241.96309,26.674 L241.97409,27.312 L243.716863,27.3129725 L243.716863,28.9086572 L242.00309,28.908 L243.079212,88.7958211 L237.659173,88.7958211 L238.46509,28.908 L236.702696,28.9086572 L236.702696,27.3129725 L238.48609,27.312 L238.49509,26.674 L236.702696,26.6746987 L236.702696,25.0790141 L238.51609,25.079 L238.550104,22.574435 C236.073378,21.8170153 234.253512,19.5533059 234.15619,16.8500288 L234.15209,16.6218855 C234.15209,13.4168192 236.572642,10.7776549 239.683718,10.4361109 L240.20978,-3.55271368e-14 Z" fill="#8AA4A8" transform="translate(173.857 62.478)"/><path d="M108.635693,71.121268 C112.297307,71.121268 115.37362,73.6296787 116.24314,77.0234232 L116.273071,77.0212739 L116.273071,77.0212739 L116.488876,77.0169027 C119.380338,77.0169027 121.724331,79.3631833 121.724331,82.257467 L121.724331,82.257467 L121.724331,88.8081723 L93.5837599,88.8081723 L93.583191,83.5554425 C92.7576825,82.3465163 92.2748961,80.8845184 92.2748961,79.3096496 C92.2748961,75.1491168 95.6443861,71.7763385 99.8008628,71.7763385 C101.228986,71.7763385 102.564201,72.1745082 103.701759,72.8659935 C105.049626,71.7750217 106.766388,71.121268 108.635693,71.121268 Z" fill="#E4F4F3" transform="translate(173.857 62.478)"/><path fill="#E9E8E6" d="M62.8254612 34.1058757L75.259667 34.1058757 81.8039859 45.4314669 81.8039859 88.3857478 56.2811423 88.3857478 56.2811423 45.4314669z" transform="translate(173.857 62.478)"/><path d="M65.1795981 52.3602988L65.1795981 55.7431734 62.0237821 55.7431734 62.0237821 52.3602988 65.1795981 52.3602988zM71.4912301 52.3602988L71.4912301 55.7431734 68.3354141 55.7431734 68.3354141 52.3602988 71.4912301 52.3602988zM77.802862 52.3602988L77.802862 55.7431734 74.6470461 55.7431734 74.6470461 52.3602988 77.802862 52.3602988zM53.9906307 70.550319C58.0060101 70.550319 61.3957361 73.3309837 62.4702516 77.1384703 62.6943582 77.1135941 62.9220512 77.1010243 63.1526771 77.1010243 66.5862882 77.1010243 69.36978 79.8872324 69.36978 83.3241944L69.3660262 83.128319 69.36978 83.1292423 69.36978 89.5473644 33.3760262 89.5473644 33.3760262 79.7213064C33.5537562 74.9892868 37.440849 71.2053895 42.2108567 71.2053895 44.3262323 71.2053895 46.2679656 71.9495664 47.7890231 73.1906457 49.3835061 71.5577426 51.5737325 70.550319 53.9906307 70.550319z" fill="#8AA4A8" transform="translate(173.857 62.478)"/><path fill="#FFF" d="M76.7866748 57.6884148L93.6564745 57.6884148 93.6564745 89.341059 76.7866748 89.341059z" transform="translate(173.857 62.478)"/></g></g></svg>
