<svg viewBox="0 0 256 205" xmlns="http://www.w3.org/2000/svg" xmlns:xlink="http://www.w3.org/1999/xlink"><defs><path d="M123.335551,0.891014525 C133.203218,2.9648774 141.69817,16.9380701 140.310089,38.8665629 C138.737649,63.7075044 117.862372,81.4960147 83.5025267,81.4960147 C41.0766884,81.4960147 -4.07286303,33.564472 0.327817093,18.2433525 C4.47194496,3.81542857 42.3875674,12.8924022 70.2467164,7.3385928 C92.18625,2.9648774 113.467885,-1.18284835 123.335551,0.891014525 Z" id="a"/><path d="M44.3252319,9.84973084 C44.6671049,12.081974 43.9346182,14.7606657 42.1277718,17.8858061 C42.1277718,17.8858061 41.2243487,21.9038437 39.4175023,29.939919 L34.6963451,19.1033933 C31.5337363,18.4058222 29.4712658,17.3171185 28.5089337,15.8372821 C27.5466015,14.3574456 26.4304799,12.3615952 25.160569,9.84973084 C16.7073788,16.9929089 12.3165604,20.5644979 11.9881138,20.5644979 C11.6596672,20.5644979 12.9057369,28.6269733 15.7263229,44.7519243 L18.3672769,70.1396312 L26.2658098,77.8368238 L51.1766813,74.7645206 C50.5013955,68.719733 50.5013955,64.0813057 51.1766813,60.8492388 C52.1896099,56.0011384 59.0768724,52.5630694 59.0768724,44.7519243 C59.0768724,36.9407792 54.1355189,33.3714518 54.1355189,28.2675536 C54.1355189,24.8649547 54.5325485,21.8508209 55.3266076,19.225152 L44.3252319,9.84973084 Z" id="e"/><path d="M10.6821687,0.363536738 C13.9651698,0.363536738 18.3945697,12.8839638 18.3945697,23.5230571 C18.3945697,30.6157859 19.5528344,38.5756461 21.8693638,47.4026376 C26.2163053,49.8072066 31.0035894,52.5409165 36.2312162,55.6037673 C41.458843,58.666618 47.8239735,62.8781495 55.3266076,68.2383617 L50.6278477,74.8742035 L7.56805714,54.8334934 C2.65489064,47.5177097 0.19830739,37.7499769 0.19830739,25.5302949 C0.19830739,7.20077198 1.49923233,1.88146206 10.6821687,0.363536738 Z" id="f"/><path d="M34.1282314,1.61927721 C48.871986,-6.78564338 70.1933312,19.1634377 90.3156888,41.7792815 C102.829112,55.8433212 145.928596,69.272226 145.928596,82.5522463 C145.928596,119.533409 44.1302048,131.364921 17.8982393,104.630706 C-8.33372622,77.8964908 -7.99521543,25.632443 34.1282314,1.61927721 Z" id="h"/><path d="M62.6201783,52.6555893 C63.0823741,54.6362341 61.348326,55.8917971 57.418034,56.4222784 C51.522596,57.2180004 48.6309414,54.4493847 48.0915209,53.1546723 C47.5521003,51.8599599 29.8713257,53.6530907 22.7756645,58.7269548 C14.8876746,64.3673859 4.1169329,72.1237059 2.31036044,79.9273703 C1.99270163,81.2995283 4.92827794,95.4228005 9.68051903,95.4228005 C10.2111266,95.4228005 9.68051903,81.7374188 29.3331724,77.3935633 C29.3331724,80.7363707 29.3331724,97.7389333 29.3331724,128.401251 L46.0904199,132.019528 L72.9642979,132.455197 C74.0554164,90.7488097 74.6009757,68.1551966 74.6009757,64.6743571 C74.6009757,61.1935177 74.800541,58.1100757 75.1996716,55.4240311 L62.6201783,52.6555893 Z" id="l"/><path id="m" d="M0.000016751614 0.000033503228L34.8433739 0.000033503228 34.8433739 45.5643901 0.000016751614 45.5643901z"/><path id="o" d="M-0.000720319402 0.162892695L37.5227778 0.162892695 37.5227778 22.9450877 -0.000720319402 22.9450877z"/><path d="M0.560044198,11.8633057 L2.00618187,7.91661772 C3.36607416,4.55099029 5.17244336,2.80597311 7.42528947,2.68156618 C10.8045586,2.49495579 16.9691317,1.6897246 17.6552751,1.18686439 C18.3414185,0.684004189 21.2889253,2.49495579 17.6552751,4.05170948 C15.2328417,5.08954528 13.2802306,5.52306754 11.7974418,5.35227628 C14.5850623,5.88598142 17.2612989,5.68081637 19.8261515,4.73678114 C23.6734305,3.32072828 27.5848964,-1.6779807 28.5263191,1.18686439 C29.4677418,4.05170948 29.4677418,6.38238303 24.4124494,9.5322827 C18.8955138,13.2203181 12.1747019,10.8053636 10.8045586,11.4824106 C9.43441532,12.1594575 8.8082122,13.2203181 7.42528947,15.4221195 C6.50334098,16.8899871 4.21492589,15.7037159 0.560044198,11.8633057 Z" id="q"/><linearGradient x1="18.502%" y1="83.752%" x2="18.502%" y2="-116.222%" id="c"><stop stop-opacity="0" offset="0%"/><stop offset="100%"/></linearGradient><linearGradient x1="18.502%" y1="83.752%" x2="18.502%" y2="-116.222%" id="j"><stop stop-opacity="0" offset="0%"/><stop offset="100%"/></linearGradient><filter x="-3.2%" y="-.7%" width="104.2%" height="101.5%" filterUnits="objectBoundingBox" id="d"><feOffset dx="-1" in="SourceAlpha" result="shadowOffsetOuter1"/><feColorMatrix values="0 0 0 0 0 0 0 0 0 0 0 0 0 0 0 0 0 0 0.166100543 0" in="shadowOffsetOuter1"/></filter><filter x="-4.1%" y="-1.3%" width="105.5%" height="102.5%" filterUnits="objectBoundingBox" id="k"><feOffset dx="-2" in="SourceAlpha" result="shadowOffsetOuter1"/><feColorMatrix values="0 0 0 0 0 0 0 0 0 0 0 0 0 0 0 0 0 0 0.06 0" in="shadowOffsetOuter1"/></filter></defs><g fill="none" fill-rule="evenodd"><g transform="translate(114.214 122.88)"><mask id="b" fill="#fff"><use xlink:href="#a"/></mask><use fill="#E2F4F2" xlink:href="#a"/><g mask="url(#b)"><path d="M45.1373582,5.50377339 L41.6071897,22.4538341 C40.3424687,20.3258871 38.1683939,19.2619136 35.0849653,19.2619136 C32.0015368,19.2619136 29.6564581,17.7319958 28.0497294,14.6721601 C31.1417858,9.17699706 32.6878141,4.98649646 32.6878141,2.10065827 C32.6878141,-0.78517992 36.8376621,0.349191786 45.1373582,5.50377339 Z" fill="#F6B58E" transform="matrix(-1 0 0 1 117.612 2.75)"/><path d="M53.4222364,23.7406609 C56.7419286,21.1365102 61.5441522,21.7165712 64.1483029,25.0362634 C64.8174162,25.8892288 65.2973307,26.8748344 65.5561527,27.9275803 L73.765916,61.3203848 L73.765916,61.3203848 L75.1918662,80.0042315 C75.5031006,80.9584443 73.5985223,81.4355507 69.4781313,81.4355507 C65.3577403,81.4355507 60.0057753,72.9661542 53.4222364,56.0273614 L47.0110403,25.0681366 L53.4222364,23.7406609 Z" fill="url(#c)" opacity=".221" transform="matrix(-1 0 0 1 117.612 2.75)"/><path d="M54.7207576,19.225152 L56.0656295,19.6513382 C60.8155665,21.1565804 64.4075,25.0729893 65.4973557,29.9350743 L71.7253648,57.719589 L71.7253648,57.719589 C75.1873182,70.7033699 74.0703281,77.1035208 68.3743943,76.9200417 C62.6784606,76.7365626 58.1272483,68.2671662 54.7207576,51.5118524 L49.2687948,20.5526276 L54.7207576,19.225152 Z" fill="#FFF" transform="matrix(-1 0 0 1 117.612 2.75)"/><path d="M27.1729041,15.494117 L10.4277643,27.1916749 L18.6019525,78.0887358 L51.0561515,78.0887358 C48.3489047,72.0917029 47.3366,67.963527 48.0192375,65.7042081 C48.6518606,63.6104213 50.573857,60.7027486 52.6910043,57.0345602 C54.0006464,54.7654625 55.8855873,52.5407635 56.0810709,49.0292725 C56.5925704,39.841159 49.8860971,35.7632813 49.8860971,31.1640298 C49.8860971,28.6690049 50.1443485,26.8219544 50.6608514,25.6228782 C50.8518124,25.1795248 50.6988045,24.6630383 50.2971596,24.3952515 L40.1835183,17.6522301 L40.1835183,17.6522301 L27.1729041,15.494117 Z" fill="#F6B58E" transform="matrix(-1 0 0 1 117.612 2.75)"/><g transform="matrix(-1 0 0 1 117.612 2.75)"><use fill="#000" filter="url(#d)" xlink:href="#e"/><use fill="#FFF" xlink:href="#e"/></g><path d="M39.5107034,36.6209937 C29.5413979,37.1341197 19.8107752,20.750308 18.3672769,18.5305533 C14.4429481,19.8865164 12.3165604,20.5644979 11.9881138,20.5644979 C11.6596672,20.5644979 12.9057369,28.6269733 15.7263229,44.7519243 L18.3672769,70.1396312 L26.6092492,78.0887358 L52.1480135,78.0887358 C50.8251729,69.8278047 50.5013955,64.0813057 51.1766813,60.8492388 C52.1896099,56.0011384 58.1138327,53.1233849 58.1138327,45.5055804 C58.1138327,37.8877758 55.0215022,34.1237804 54.1505702,29.231979 C53.5699489,25.9707781 53.2264855,21.978169 53.12018,17.2541517 C50.3247006,13.8564797 48.4983934,12.5809951 47.6412582,13.4276977 C42.9512679,18.060604 51.2197647,36.0183214 39.5107034,36.6209937 Z" fill="#FEDD48" transform="matrix(-1 0 0 1 117.612 2.75)"/><path fill="#FFF" d="M34.7717958 19.1033933L31.8572984 25.6818784 21.485459 13.6175274 25.160569 9.84973084zM41.1425579 22.4587156C44.7176079 21.7141058 40.9007353 32.0612854 43.1680199 29.7765227 44.679543 28.2533475 46.3440158 22.6903588 48.1614384 13.0875564L45.134862 11.0717671C42.7159757 17.172719 41.3852077 20.9683685 41.1425579 22.4587156z" transform="matrix(-1 0 0 1 117.612 2.75)"/><g transform="matrix(-1 0 0 1 117.612 22.95)"><mask id="g" fill="#fff"><use xlink:href="#f"/></mask><use fill="#FFF" xlink:href="#f"/><path d="M-2.64421822,3.75016845 C0.7077193,3.75016845 -3.87243476,17.5828377 -3.87243476,28.221931 C-3.87243476,35.3146598 -0.00036983878,43.0871933 7.74376001,51.5395312 C17.7372342,56.5013127 25.4026695,60.5136288 30.7400659,63.5764796 C36.0774623,66.6393304 43.3288018,69.4781463 52.4940844,72.0929275 L51.1766813,80.7660352 L-5.82371981,58.2201251 C-10.8400529,50.9043414 -13.3482195,41.1366086 -13.3482195,28.9169267 C-13.3482195,10.5874037 -12.0199777,5.26809378 -2.64421822,3.75016845 Z" fill="#BA7500" opacity=".239" mask="url(#g)"/></g></g></g><path d="M30.6269249,49.3412435 C36.9990664,51.1988529 44.1898602,43.5483876 46.7401539,34.7638788 C49.2904475,25.97937 51.1644351,12.5569695 41.5020181,9.82646394 C31.8396012,7.09595841 20.023041,17.2424737 20.023041,27.3283912 C20.023041,37.4143087 24.2547835,47.483634 30.6269249,49.3412435 Z" fill="#FFEDE3" transform="matrix(-1 0 0 1 222.67 84.872)"/><path d="M31.0031914,0.38288833 C40.5541597,2.35433498 44.1640167,10.4853477 40.7747562,17.9417209 C37.3854956,25.3980941 24.4334874,25.5351637 22.6697868,27.3052893 C20.9060863,29.075415 22.8309999,43.2356029 26.9131045,49.5557974 C30.9952092,55.875992 26.6105384,58.562517 22.6697868,61.1614856 C18.7290353,63.7604541 4.23743959,65.3566192 2.13320674,57.7985146 C0.0289738981,50.2404101 -2.46214222,31.8617833 5.19126853,17.9417209 C12.8446793,4.02165841 21.4522231,-1.58855832 31.0031914,0.38288833 Z" fill="#4C4C4C" transform="matrix(-1 0 0 1 222.67 84.872)"/><path d="M38.1691989,4.01803763 C45.4912605,6.22217204 49.1522912,9.94311257 49.1522912,15.1808592 C49.1522912,15.1808592 49.1522912,15.1808592 49.1522912,15.1808592 C49.1522912,16.1798119 48.3424801,16.989623 47.3435274,16.989623 C46.6082668,16.989623 45.9461708,16.5445415 45.6686023,15.8636861 C44.6055297,13.2560754 43.1706196,11.952268 41.3638619,11.952268 C37.6116214,11.952268 36.5467338,9.30752451 38.1691989,4.01803763 Z" fill="#4C4C4C" transform="matrix(-1 0 0 1 222.67 84.872)"/><g><g transform="translate(0 81.66)"><mask id="i" fill="#fff"><use xlink:href="#h"/></mask><use fill="#FFF8DA" xlink:href="#h"/><path d="M62.900495,38.0599208 L62.6163696,58.7269548 C60.673073,58.4508152 58.1242597,58.3127455 54.9699297,58.3127455 C51.8155996,58.3127455 49.4165973,56.7476481 47.7729228,53.6174534 C47.7038199,43.8770495 47.6692685,37.5307494 47.6692685,34.5785532 C47.6692685,31.626357 52.746344,32.7868128 62.900495,38.0599208 Z" fill="#F6B58E" mask="url(#i)"/><path d="M73.8712917,60.0433714 C77.3978712,57.2769268 82.4993753,57.8931379 85.26582,61.4197175 C85.9181896,62.2513385 86.4018299,63.2023841 86.6895729,64.2194306 L96.3846238,98.4872177 L96.3846238,98.4872177 L111.60745,69.6688188 L114.780602,71.4567203 L98.6942939,117.600688 C97.3108228,118.576842 94.5115187,119.064919 90.2963819,119.064919 C86.081245,119.064919 80.606215,110.400774 73.8712917,93.0724845 L67.3126741,61.4013715 L73.8712917,60.0433714 Z" fill="url(#j)" opacity=".221" mask="url(#i)"/><path d="M75.1996716,55.4240311 L76.7518698,55.9159186 C81.5018068,57.4211607 85.0937404,61.3375697 86.183596,66.1996546 L92.5952891,94.8036239 L92.5952891,94.8036239 L108.438534,65.975914 L115.568234,69.0131383 L98.6942939,109.159747 C98.1698497,112.871333 94.9941734,114.633277 89.1672652,114.445579 C83.3403569,114.257881 78.6844924,105.593736 75.1996716,88.4531442 L69.6223442,56.7820312 L75.1996716,55.4240311 Z" fill="#FEDD48" mask="url(#i)"/><g mask="url(#i)"><use fill="#000" filter="url(#k)" xlink:href="#l"/><use fill="#FEDD48" xlink:href="#l"/></g></g><path d="M45.4876844,23.6204123 C43.9503888,39.174956 32.62345,51.9453814 22.8344768,51.9453814 C13.0455037,51.9453814 1.92460968,39.149326 0.181436731,23.6204123 C-1.56123367,8.09836677 9.76537013,3.78666884 12.3791245,6.62539735 C18.7685251,-6.28456901 47.2301873,5.98950608 45.4876844,23.6204123" fill="#63656A" transform="translate(36.268 71.993)"/><g transform="translate(45.649 84.226)"><mask id="n" fill="#fff"><use xlink:href="#m"/></mask><path d="M34.8433739,28.142745 L34.8433739,17.4217121 C34.8433739,7.79992001 27.0433198,3.3503228e-05 17.4216953,3.3503228e-05 L17.4216953,3.3503228e-05 C7.79990326,3.3503228e-05 1.6751614e-05,7.79992001 1.6751614e-05,17.4217121 L1.6751614e-05,28.142745 C1.6751614e-05,37.7645371 7.80007078,45.5644236 17.4216953,45.5644236 C27.0433198,45.5644236 34.8433739,37.7645371 34.8433739,28.142745" fill="#FFEDE3" mask="url(#n)"/></g><path d="M21.4413456,28.3102947 C21.4413456,32.7511475 17.8414238,36.3510694 13.4005709,36.3510694 L13.4005709,28.3102947 L21.4413456,28.3102947 Z" fill="#63656A" transform="translate(36.268 71.993)"/><path fill="#63656A" d="M21.4413456 25.6300364L9.38085358 14.9090035 9.39827132 28.8090735 21.4471516 28.4765539z" transform="translate(36.268 71.993)"/><path d="M10.7203126,25.6300364 L10.7203126,25.6300364 C13.6808254,25.6300364 16.0808291,28.0300402 16.0808291,30.9905529 L16.0808291,41.7115859 L16.0808291,41.7115859 C10.1598036,41.7115859 5.35979616,36.9115784 5.35979616,30.9905529 C5.35979616,28.0300402 7.7597999,25.6300364 10.7203126,25.6300364" fill="#FFEDE3" transform="translate(36.268 71.993)"/><g transform="translate(46.989 71.998)"><mask id="p" fill="#fff"><use xlink:href="#o"/></mask><path d="M-0.000720319402,12.2240548 C-0.000720319402,6.30302929 3.17873602,0.162892695 12.0604418,0.162892695 C20.94198,0.162892695 37.522895,6.30302929 37.522895,12.2240548 C37.522895,18.1450803 30.3228838,22.9450877 21.4413456,22.9450877 C12.5596399,22.9450877 -0.000720319402,18.1450803 -0.000720319402,12.2240548" fill="#63656A" mask="url(#p)"/></g><g transform="translate(108.143 135.773)"><mask id="r" fill="#fff"><use xlink:href="#q"/></mask><use fill="#FAC395" xlink:href="#q"/><path d="M28.619044,5.12849794e-16 C31.5516902,4.03210176 29.3259643,6.67097434 21.9418663,7.91661772 C5.34780397,8.33937567 7.89137298,4.61934028 12.9563285,4.61434651 C18.0212841,4.60935274 19.626132,3.16127396 21.9418663,2.07870313 C23.4856892,1.35698923 25.7114151,0.664088193 28.619044,5.12849794e-16 Z" fill="#8B572A" opacity=".099" mask="url(#r)"/></g></g><g transform="translate(96.578 13)"><path d="M19.9633028,0 C8.93787509,0 0,8.93787509 0,19.9633028 C0,30.9887304 8.93787509,39.9266055 19.9633028,39.9266055 C30.9887304,39.9266055 39.9266055,30.9887304 39.9266055,19.9633028 C39.9266055,8.93787509 30.9887304,0 19.9633028,0 Z" fill="#38B2A6" fill-rule="nonzero" transform="translate(13.309 70.049)"/><path d="M19.9633028,3.32721713 C29.1511591,3.32721713 36.5993884,10.7754464 36.5993884,19.9633028 C36.5993884,29.1511591 29.1511591,36.5993884 19.9633028,36.5993884 C10.7754464,36.5993884 3.32721713,29.1511591 3.32721713,19.9633028 C3.32721713,10.7754464 10.7754464,3.32721713 19.9633028,3.32721713 Z" fill="#20776F" fill-rule="nonzero" transform="translate(13.309 70.049)"/><path d="M11.289946,18.4651708 L19.3180342,11.2088341 C19.6785532,10.8665082 20.2187632,10.8665082 20.5991847,11.2088341 L24.5819534,14.8053845 L24.5819534,14.1632953 C24.5819534,13.9279843 24.762213,13.7352359 24.9822774,13.7352359 L26.0831684,13.7352359 C26.3026642,13.7352359 26.4834924,13.9279843 26.4834924,14.1632953 L26.4834924,16.5389035 L28.6261355,18.4651708 C29.046362,18.8512755 29.0867356,19.514038 28.7455504,19.9420974 C28.3850313,20.3914382 27.7646429,20.435217 27.3643189,20.0703936 L27.2443354,19.9633788 L27.2443354,28.3111453 C27.2443354,28.6741446 26.9639949,28.9745158 26.6245156,28.9745158 L22.0401236,28.9745158 L22.0401236,21.247557 L17.9169002,21.247557 L17.9169002,28.9745158 L13.3325082,28.9745158 C12.9924603,28.9745158 12.7121197,28.6741446 12.7121197,28.3111453 L12.7121197,19.9633788 L12.5921363,20.0703936 C12.4118768,20.2424686 12.1719098,20.326986 11.9518454,20.326986 C11.6715048,20.326986 11.3911643,20.1986898 11.1910023,19.9633788 C10.8304833,19.4933647 10.889622,18.8287781 11.289946,18.4651708" fill="#FFF" transform="translate(13.309 70.049)"/><g transform="translate(61.554 35.272)"><circle fill="#F9A600" cx="13.309" cy="13.309" r="13.309"/><path d="M17.653762,19.9116324 L13.5169604,17.7493261 L9.53053859,20.1779553 C9.15800467,20.4048819 8.6913313,20.0886819 8.76404139,19.658504 L9.54214226,15.0559648 L6.00059016,12.015242 C5.66960486,11.7310457 5.82616081,11.1894164 6.25764886,11.1256897 L10.8753477,10.4434127 L12.672887,6.13555057 C12.8408595,5.73297812 13.4043861,5.71444968 13.5983732,6.10513773 L15.6742135,10.2861081 L20.3267233,10.6644439 C20.7614866,10.6998164 20.9532279,11.2300292 20.6416132,11.535187 L17.3066813,14.8014327 L18.3846996,19.3431462 C18.4853895,19.7675223 18.0404262,20.1136672 17.653762,19.9116324" fill="#FFF"/></g><g transform="translate(9.982 29.45)"><circle fill="#F46E42" cx="9.982" cy="9.982" r="9.982"/><path d="M7.44662864,5.82262997 C7.43194596,5.82262997 7.41750202,5.82276128 7.40281935,5.8230239 C7.32904784,5.82446833 7.26375171,5.82814506 7.19857495,5.83405409 C7.17135828,5.83654902 7.07311564,5.84994282 7.07311564,5.84994282 C5.88835487,6.02524402 4.99342777,7.15084844 4.99342777,8.46803673 C4.95212528,9.65719604 5.40215531,10.7504978 6.36918272,11.8180624 C7.11776053,12.6445386 8.01006147,13.4586716 9.09669898,14.3068142 C9.43070005,14.5675994 9.71480389,14.7805871 9.98159889,14.9702012 C10.2488714,14.7803244 10.5328558,14.5673368 10.8663794,14.3068142 C11.9527782,13.4590655 12.8449598,12.6449326 13.5940151,11.8180624 C14.5610425,10.7504978 15.0110725,9.65706473 14.9698894,8.47565281 C14.96977,8.47302657 14.96977,8.47053165 14.96977,8.46803673 C14.96977,7.15084844 14.0748429,6.02524402 12.8880528,5.84968019 C12.8880528,5.84968019 12.7914814,5.83654902 12.7651003,5.8341854 C12.6994461,5.82814506 12.6341499,5.82446833 12.5686151,5.82328653 C12.1415043,5.81527651 11.7183328,5.90627556 11.335867,6.08302119 C10.8352235,6.31439252 10.4656498,6.72093373 10.1082519,7.11421246 C10.0411652,7.18800967 9.92215195,7.18800967 9.85506524,7.11421246 C9.48119414,6.70294402 9.12797428,6.31439252 8.62733078,6.08302119 C8.25823453,5.9123159 7.85093944,5.82262997 7.44662864,5.82262997 Z" fill="#FFF"/></g><g transform="translate(54.422)"><circle fill="#6D7FB4" cx="9.15" cy="9.15" r="9.15"/><path d="M9.87941074,5.25332302 C10.0853669,5.05401058 10.3909793,4.99421685 10.6700167,5.10716057 C10.9091917,5.20681678 11.0752854,5.41941671 11.1151478,5.65859163 C11.1217916,5.69845412 11.1284353,5.73831661 11.1284353,5.78482284 C11.1284353,5.83797283 11.1217916,5.89112281 11.1085041,5.94427279 L11.1085041,5.94427279 L11.1043517,5.97416966 L11.1043517,5.97416966 L11.0952166,6.00406652 L10.9756291,6.39604764 L10.7364542,7.20658488 L10.6500855,7.47233479 L10.5637168,7.74472845 L10.557073,7.75801594 L12.6033473,7.75801594 C12.8624535,7.78459094 13.3142284,7.98390337 13.3009409,8.53533444 L13.3009409,8.53533444 L12.4970474,12.4219269 C12.4173224,12.7939768 12.0917788,13.0597267 11.7130851,13.0597267 L11.7130851,13.0597267 L9.24161095,13.0597267 C9.04229852,13.0597267 8.84298608,13.0464392 8.64367365,13.026508 L8.64367365,13.026508 L8.07895509,12.9600705 C8.07895509,12.9600705 7.14883039,12.787333 7.12889915,12.7806893 C7.1222554,12.7806893 7.11561165,12.7740455 7.1089679,12.7740455 C7.00266794,12.7408268 6.92294297,12.6411706 6.92294297,12.5215831 L6.92294297,12.5215831 L6.92294297,9.47874663 C6.92294297,9.38573416 6.97609295,9.29272169 7.06246167,9.24621545 L7.06246167,9.24621545 L7.17707755,9.17518076 C7.54245872,8.92660177 7.74012395,8.57519693 7.74012395,8.57519693 L7.74012395,8.57519693 L9.73324829,5.43934796 C9.77311078,5.37291048 9.82626076,5.306473 9.87941074,5.25332302 Z M6.37815565,8.90074057 C6.49109936,8.90074057 6.57746808,8.99375304 6.57746808,9.10669675 L6.57746808,9.10669675 L6.57746808,12.5946644 C6.57746808,12.7076081 6.48445561,12.8006205 6.3715119,12.8006205 L6.3715119,12.8006205 L5.26864976,12.8006205 C5.15570605,12.8006205 5.06269358,12.7076081 5.06269358,12.5946644 L5.06269358,12.5946644 L5.06269358,9.10669675 C5.06269358,8.99375304 5.15570605,8.90074057 5.26864976,8.90074057 L5.26864976,8.90074057 Z" fill="#FFF" fill-rule="nonzero"/></g><circle fill="#F46E42" cx="51.572" cy="32.777" r="3.327"/><circle fill="#F46E42" cx="38.263" cy="41.095" r="1.664"/><circle fill="#6D7FB4" cx="91.498" cy="18.636" r="1.664"/><circle fill="#38B2A6" cx="16.636" cy="64.226" r="2.495"/><circle fill="#F9A600" cx="57.394" cy="66.049" r="1.664"/><circle fill="#F9A600" cx="1.664" cy="33.609" r="1.664"/></g></g></svg>